<svg width="18" height="18" viewBox="0 0 18 18" fill="none" xmlns="http://www.w3.org/2000/svg">
<path fill-rule="evenodd" clip-rule="evenodd" d="M14 11.0779C14 12.0457 13.16 12.8312 12.125 12.8312C11.09 12.8312 10.25 12.0457 10.25 11.0779C10.25 10.1101 11.09 9.32464 12.125 9.32464V6.08578L7.75 7.41943V12.2467C7.75 13.2145 6.91 14 5.875 14C4.84 14 4 13.2145 4 12.2467C4 11.2789 4.84 10.4935 5.875 10.4935V6.78358C5.875 6.40253 6.13625 6.06708 6.5225 5.95019L12.7725 4.04264C13.055 3.95615 13.37 4.0029 13.6125 4.16771C13.8562 4.33252 14 4.59667 14 4.8772V11.0779ZM15.75 0H2.25C1.008 0 0 1.008 0 2.25V15.75C0 16.992 1.008 18 2.25 18H15.75C16.992 18 18 16.992 18 15.75V2.25C18 1.008 16.992 0 15.75 0Z" fill="white"/>
</svg>
