<svg width="33" height="12" viewBox="0 0 33 12" fill="none" xmlns="http://www.w3.org/2000/svg">
<path d="M18.7205 6.168C19.0865 6.246 19.3805 6.429 19.6025 6.717C19.8245 6.999 19.9355 7.323 19.9355 7.689C19.9355 8.217 19.7495 8.637 19.3775 8.949C19.0115 9.255 18.4985 9.408 17.8385 9.408H14.8955V3.09H17.7395C18.3815 3.09 18.8825 3.237 19.2425 3.531C19.6085 3.825 19.7915 4.224 19.7915 4.728C19.7915 5.1 19.6925 5.409 19.4945 5.655C19.3025 5.901 19.0445 6.072 18.7205 6.168ZM16.4345 5.646H17.4425C17.6945 5.646 17.8865 5.592 18.0185 5.484C18.1565 5.37 18.2255 5.205 18.2255 4.989C18.2255 4.773 18.1565 4.608 18.0185 4.494C17.8865 4.38 17.6945 4.323 17.4425 4.323H16.4345V5.646ZM17.5685 8.166C17.8265 8.166 18.0245 8.109 18.1625 7.995C18.3065 7.875 18.3785 7.704 18.3785 7.482C18.3785 7.26 18.3035 7.086 18.1535 6.96C18.0095 6.834 17.8085 6.771 17.5505 6.771H16.4345V8.166H17.5685Z" fill=""/>
<path d="M23.1141 9.471C22.6521 9.471 22.2381 9.396 21.8721 9.246C21.5061 9.096 21.2121 8.874 20.9901 8.58C20.7741 8.286 20.6601 7.932 20.6481 7.518H22.2861C22.3101 7.752 22.3911 7.932 22.5291 8.058C22.6671 8.178 22.8471 8.238 23.0691 8.238C23.2971 8.238 23.4771 8.187 23.6091 8.085C23.7411 7.977 23.8071 7.83 23.8071 7.644C23.8071 7.488 23.7531 7.359 23.6451 7.257C23.5431 7.155 23.4141 7.071 23.2581 7.005C23.1081 6.939 22.8921 6.864 22.6101 6.78C22.2021 6.654 21.8691 6.528 21.6111 6.402C21.3531 6.276 21.1311 6.09 20.9451 5.844C20.7591 5.598 20.6661 5.277 20.6661 4.881C20.6661 4.293 20.8791 3.834 21.3051 3.504C21.7311 3.168 22.2861 3 22.9701 3C23.6661 3 24.2271 3.168 24.6531 3.504C25.0791 3.834 25.3071 4.296 25.3371 4.89H23.6721C23.6601 4.686 23.5851 4.527 23.4471 4.413C23.3091 4.293 23.1321 4.233 22.9161 4.233C22.7301 4.233 22.5801 4.284 22.4661 4.386C22.3521 4.482 22.2951 4.623 22.2951 4.809C22.2951 5.013 22.3911 5.172 22.5831 5.286C22.7751 5.4 23.0751 5.523 23.4831 5.655C23.8911 5.793 24.2211 5.925 24.4731 6.051C24.7311 6.177 24.9531 6.36 25.1391 6.6C25.3251 6.84 25.4181 7.149 25.4181 7.527C25.4181 7.887 25.3251 8.214 25.1391 8.508C24.9591 8.802 24.6951 9.036 24.3471 9.21C23.9991 9.384 23.5881 9.471 23.1141 9.471Z" fill=""/>
<path d="M26.1042 6.24C26.1042 5.616 26.2392 5.061 26.5092 4.575C26.7792 4.083 27.1542 3.702 27.6342 3.432C28.1202 3.156 28.6692 3.018 29.2812 3.018C30.0312 3.018 30.6732 3.216 31.2072 3.612C31.7412 4.008 32.0982 4.548 32.2782 5.232H30.5862C30.4602 4.968 30.2802 4.767 30.0462 4.629C29.8182 4.491 29.5572 4.422 29.2632 4.422C28.7892 4.422 28.4052 4.587 28.1112 4.917C27.8172 5.247 27.6702 5.688 27.6702 6.24C27.6702 6.792 27.8172 7.233 28.1112 7.563C28.4052 7.893 28.7892 8.058 29.2632 8.058C29.5572 8.058 29.8182 7.989 30.0462 7.851C30.2802 7.713 30.4602 7.512 30.5862 7.248H32.2782C32.0982 7.932 31.7412 8.472 31.2072 8.868C30.6732 9.258 30.0312 9.453 29.2812 9.453C28.6692 9.453 28.1202 9.318 27.6342 9.048C27.1542 8.772 26.7792 8.391 26.5092 7.905C26.2392 7.419 26.1042 6.864 26.1042 6.24Z" fill=""/>
<path d="M3.6695 5.04252L5.9999 2.71218L8.3315 5.04372L9.6875 3.68772L5.9999 0L2.31356 3.68652L3.6695 5.04252ZM0 5.99981L1.35604 4.64377L2.71199 5.99973L1.35596 7.35576L0 5.99981ZM3.6695 6.95748L5.9999 9.28782L8.33144 6.95634L9.68816 8.31162L9.6875 8.31234L5.9999 12L2.31344 8.3136L2.31152 8.31168L3.6695 6.95748ZM9.28804 6.00056L10.6441 4.64452L12 6.00047L10.644 7.35652L9.28804 6.00056Z" fill=""/>
<path d="M7.37531 5.99903H7.37591L5.99993 4.62305L4.98305 5.63993H4.98299L4.86617 5.75681L4.62521 5.99783L4.62329 5.99969L4.62521 6.00167L5.99993 7.37645L7.37591 6.00047L7.37657 5.99969L7.37531 5.99903" fill=""/>
</svg>
