<svg width="24" height="24" viewBox="0 0 24 24" fill="none" xmlns="http://www.w3.org/2000/svg">
<path fill-rule="evenodd" clip-rule="evenodd" d="M2.29265 2.29289C2.68318 1.90237 3.31634 1.90237 3.70686 2.29289L6.74716 5.33319C8.30873 4.483 10.0992 4 12.0002 4C16.9271 4 21.0951 7.23845 22.4964 11.7004C22.5577 11.8954 22.5577 12.1046 22.4964 12.2996C21.8437 14.3778 20.5921 16.1885 18.9449 17.531L21.7069 20.2929C22.0974 20.6834 22.0974 21.3166 21.7069 21.7071C21.3163 22.0976 20.6832 22.0976 20.2927 21.7071L2.29265 3.70711C1.90213 3.31658 1.90213 2.68342 2.29265 2.29289ZM11.4816 10.0676L13.9322 12.5182C13.9763 12.353 13.9998 12.1793 13.9998 12C13.9998 10.8954 13.1044 10 11.9998 10C11.8204 10 11.6468 10.0235 11.4816 10.0676ZM15.4458 14.0318L17.5218 16.1078C18.8687 15.0598 19.9094 13.6379 20.4883 12C19.2527 8.50345 15.9176 6 12.0002 6C10.6553 6 9.38078 6.29444 8.2362 6.82223L9.96795 8.55397C10.5634 8.2023 11.2584 8 11.9998 8C14.2089 8 15.9998 9.79082 15.9998 12C15.9998 12.7414 15.7975 13.4364 15.4458 14.0318ZM3.95245 7.97355C4.2409 7.95367 4.52384 8.05962 4.72829 8.26407L14.5818 18.1175C14.8438 18.3795 14.9394 18.765 14.8303 19.1191C14.7212 19.4733 14.4251 19.738 14.0611 19.8071C13.3926 19.9339 12.7036 20 12.0003 20C7.0733 20 2.90536 16.7616 1.50396 12.2996C1.44269 12.1046 1.44269 11.8954 1.50396 11.7004C1.88587 10.4844 2.47286 9.36002 3.22378 8.36774C3.39826 8.13718 3.66399 7.99342 3.95245 7.97355ZM4.17913 10.5433C3.91542 11.005 3.69153 11.4921 3.51203 12C4.70845 15.3853 7.87284 17.8397 11.6283 17.9925L4.17913 10.5433Z" fill="white" fill-opacity="0.5"/>
</svg>
