<svg width="24" height="24" viewBox="0 0 24 24" fill="none" xmlns="http://www.w3.org/2000/svg">
<path fill-rule="evenodd" clip-rule="evenodd" d="M12 8C9.79086 8 8 9.79086 8 12C8 14.2091 9.79086 16 12 16C14.2091 16 16 14.2091 16 12C16 9.79086 14.2091 8 12 8ZM10 12C10 10.8954 10.8954 10 12 10C13.1046 10 14 10.8954 14 12C14 13.1046 13.1046 14 12 14C10.8954 14 10 13.1046 10 12Z" fill="white" fill-opacity="0.5"/>
<path fill-rule="evenodd" clip-rule="evenodd" d="M12.0004 4C9.81608 4 7.77754 4.63776 6.06461 5.73757L6.0476 5.7483C3.91143 7.12532 2.28211 9.22279 1.50396 11.7004C1.44269 11.8954 1.44269 12.1046 1.50396 12.2996C2.9053 16.7615 7.07324 20 12.0002 20C14.1846 20 16.2231 19.3622 17.936 18.2624L17.953 18.2517C20.0892 16.8747 21.7185 14.7772 22.4967 12.2996C22.5579 12.1046 22.5579 11.8954 22.4967 11.7004C21.0953 7.23845 16.9274 4 12.0004 4ZM12.0004 6C10.2045 6 8.53418 6.52502 7.13104 7.42963L7.11569 7.43933C5.45983 8.51156 4.17924 10.1123 3.51203 12C4.7477 15.4965 8.08281 18 12.0002 18C13.7961 18 15.4664 17.475 16.8696 16.5704L16.8849 16.5607C18.5408 15.4884 19.8214 13.8877 20.4886 12C19.2529 8.50345 15.9178 6 12.0004 6Z" fill="white" fill-opacity="0.5"/>
</svg>
