<svg width="21" height="16" viewBox="0 0 21 16" fill="none" xmlns="http://www.w3.org/2000/svg">
<path d="M10.2805 12.5C10.5514 12.5 10.8222 12.4688 11.093 12.4062L12.718 13.6875C11.8639 13.8958 11.0514 14 10.2805 14C8.38468 14 6.6451 13.5 5.06177 12.5C3.47843 11.4792 2.24927 10.1354 1.37427 8.46875C1.31177 8.32292 1.28052 8.16667 1.28052 8C1.28052 7.83333 1.31177 7.67708 1.37427 7.53125C1.66593 6.98958 2.05135 6.41667 2.53052 5.8125L5.81177 8.34375C5.8951 9.51042 6.36385 10.5 7.21802 11.3125C8.07218 12.1042 9.09302 12.5 10.2805 12.5ZM20.093 14.3125C20.218 14.4167 20.2805 14.5521 20.2805 14.7188C20.2805 14.8229 20.2493 14.9271 20.1868 15.0312L19.5618 15.8125C19.4576 15.9375 19.3222 16 19.1555 16C19.0514 16 18.9576 15.9688 18.8743 15.9062L0.468018 1.6875C0.343018 1.58333 0.280518 1.44792 0.280518 1.28125C0.280518 1.17708 0.311768 1.07292 0.374268 0.96875L0.999268 0.1875C1.10343 0.0625 1.23885 0 1.40552 0C1.50968 0 1.60343 0.03125 1.68677 0.09375L5.68677 3.1875C7.12427 2.39583 8.65552 2 10.2805 2C12.1764 2 13.9159 2.51042 15.4993 3.53125C17.0826 4.53125 18.3118 5.86458 19.1868 7.53125C19.2493 7.67708 19.2805 7.83333 19.2805 8C19.2805 8.16667 19.2493 8.32292 19.1868 8.46875C18.5409 9.69792 17.6868 10.7604 16.6243 11.6562L20.093 14.3125ZM14.343 9.875C14.6347 9.27083 14.7805 8.64583 14.7805 8C14.7805 6.75 14.343 5.6875 13.468 4.8125C12.593 3.9375 11.5305 3.5 10.2805 3.5C9.19718 3.5 8.24927 3.84375 7.43677 4.53125L9.71802 6.3125C9.75968 6.20833 9.78052 6.10417 9.78052 6C9.78052 5.66667 9.68677 5.375 9.49927 5.125C9.7701 5.04167 10.0409 5 10.3118 5C11.1243 5 11.8222 5.29167 12.4055 5.875C12.9889 6.45833 13.2805 7.15625 13.2805 7.96875C13.2805 7.96875 13.2805 7.97917 13.2805 8C13.2805 8.3125 13.2284 8.625 13.1243 8.9375L14.343 9.875Z" fill=""/>
</svg>
