<svg viewBox="0 0 16 16" fill="none" xmlns="http://www.w3.org/2000/svg">
<path d="M2.42208 2.53125C3.94291 1.01042 5.77624 0.25 7.92208 0.25C10.0679 0.25 11.8908 1.01042 13.3908 2.53125C14.9117 4.03125 15.6721 5.85417 15.6721 8C15.6721 10.1458 14.9117 11.9792 13.3908 13.5C11.8908 15 10.0679 15.75 7.92208 15.75C5.77624 15.75 3.94291 15 2.42208 13.5C0.922078 11.9792 0.172078 10.1458 0.172078 8C0.172078 5.85417 0.922078 4.03125 2.42208 2.53125ZM3.48458 12.4375C4.71374 13.6458 6.19291 14.25 7.92208 14.25C9.65124 14.25 11.12 13.6458 12.3283 12.4375C13.5575 11.2083 14.1721 9.72917 14.1721 8C14.1721 6.27083 13.5575 4.80208 12.3283 3.59375C11.12 2.36458 9.65124 1.75 7.92208 1.75C6.19291 1.75 4.71374 2.36458 3.48458 3.59375C2.27624 4.80208 1.67208 6.27083 1.67208 8C1.67208 9.72917 2.27624 11.2083 3.48458 12.4375ZM11.1096 6.0625L9.17208 8L11.1096 9.9375C11.2762 10.125 11.2762 10.3021 11.1096 10.4688L10.3908 11.1875C10.2242 11.3542 10.0471 11.3542 9.85958 11.1875L7.92208 9.25L5.98458 11.1875C5.79708 11.3542 5.61999 11.3542 5.45333 11.1875L4.73458 10.4688C4.56791 10.3021 4.56791 10.125 4.73458 9.9375L6.67208 8L4.73458 6.0625C4.56791 5.875 4.56791 5.69792 4.73458 5.53125L5.45333 4.8125C5.61999 4.64583 5.79708 4.64583 5.98458 4.8125L7.92208 6.75L9.85958 4.8125C10.0471 4.64583 10.2242 4.64583 10.3908 4.8125L11.1096 5.53125C11.2762 5.69792 11.2762 5.875 11.1096 6.0625Z" fill=""/>
</svg>
