<svg width="18" height="18" viewBox="0 0 18 18" fill="none" xmlns="http://www.w3.org/2000/svg">
<mask id="mask0_3219_14842" style="mask-type:alpha" maskUnits="userSpaceOnUse" x="0" y="0" width="18" height="18">
<circle cx="9" cy="9" r="8.5" fill="#C4C4C4" stroke="black"/>
</mask>
<g mask="url(#mask0_3219_14842)">
<circle  cx="9" cy="9" r="9" fill=""/>
<path d="M5.54652 10.1334C5.24505 9.65922 4.68308 9.00802 4.68308 8.44462C4.68975 8.26196 4.75144 8.08556 4.86007 7.93855C4.9687 7.79154 5.11921 7.68077 5.29188 7.62075C5.26407 7.14662 5.24504 6.6637 5.24504 6.18518C5.24504 5.90275 5.24505 5.6174 5.26114 5.33789C5.27584 5.16012 5.3077 4.98419 5.35627 4.81254C5.57685 4.09402 6.05744 3.48354 6.70412 3.1004C6.93538 2.95903 7.18059 2.84184 7.43585 2.75066C7.90269 2.58237 8.17085 2.01103 8.67867 2.00078C9.86553 1.97005 11.3169 2.84724 12.0779 3.67112C12.5629 4.20744 12.8388 4.90036 12.855 5.62325L12.8067 7.70123C12.919 7.72454 13.0236 7.77577 13.1108 7.85021C13.1981 7.92464 13.2651 8.01986 13.3058 8.12707C13.4682 8.78413 12.7877 9.59922 12.4716 10.1216C12.1789 10.6031 11.0638 12.1601 11.0638 12.1704C11.0698 12.2595 11.1048 12.3443 11.1633 12.4118C12.8946 14.7912 18 13.2894 18 18.022H9.07512L0 18.0224C0 13.2884 5.08992 14.7927 6.81973 12.4133C6.90461 12.2889 6.94412 12.2201 6.94266 12.166C6.94266 12.1352 5.66067 10.3221 5.54652 10.1392V10.1334Z" fill="white"/>
<circle cx="9" cy="9" r="8.5" stroke=""/>
</g>
</svg>
