<svg  viewBox="0 0 16 16" fill="none" xmlns="http://www.w3.org/2000/svg">
<path fill-rule="evenodd" clip-rule="evenodd" d="M7.5 2C4.46243 2 2 4.46243 2 7.5C2 10.5376 4.46243 13 7.5 13C8.8502 13 10.0868 12.5135 11.0439 11.7062C10.939 12.0486 11.022 12.4362 11.2929 12.7071L12.2929 13.7071C12.6834 14.0976 13.3166 14.0976 13.7071 13.7071C14.0976 13.3166 14.0976 12.6834 13.7071 12.2929L12.7071 11.2929C12.4362 11.022 12.0486 10.939 11.7062 11.0439C12.5135 10.0868 13 8.8502 13 7.5C13 4.46243 10.5376 2 7.5 2ZM7.5 11.5C9.70914 11.5 11.5 9.70914 11.5 7.5C11.5 5.29086 9.70914 3.5 7.5 3.5C5.29086 3.5 3.5 5.29086 3.5 7.5C3.5 9.70914 5.29086 11.5 7.5 11.5Z" fill=""/>
</svg>
