<svg width="18" height="18" viewBox="0 0 18 18" fill="none" xmlns="http://www.w3.org/2000/svg">
<path fill-rule="evenodd" clip-rule="evenodd" d="M15 4.00293H13V2.00293H15V4.00293ZM7 12.0029V6.00293L13 9.00293L7 12.0029ZM15 16.0029H13V14.0029H15V16.0029ZM10 16.0029H8V14.0029H10V16.0029ZM5 4.00293H3V2.00293H5V4.00293ZM5 16.0029H3V14.0029H5V16.0029ZM8 2.00293H10V4.00293H8V2.00293ZM16.2857 0H1.71429C0.767143 0 0 0.895 0 2V16C0 17.104 0.767143 18 1.71429 18H16.2857C17.232 18 18 17.104 18 16V2C18 0.895 17.232 0 16.2857 0Z" fill="white"/>
</svg>
