<svg width="777" height="179" viewBox="0 0 777 179" fill="none" xmlns="http://www.w3.org/2000/svg">
<path d="M83.4375 15.0547L95 35.6797H82.0243L73.1597 15.0547H83.4375ZM66.9931 15.0547L75.8576 35.6797H40.1424L49.0069 15.0547H66.9931ZM32.5625 15.0547H42.8403L33.9757 35.6797H21L32.5625 15.0547ZM21 39.8047H33.9757L49.7778 72.2891C49.8634 72.4609 49.7778 72.6328 49.5208 72.8047C49.3495 72.8906 49.2211 72.8477 49.1354 72.6758L21 39.8047ZM40.0139 39.8047H75.9861L58.3854 80.7969C58.2998 80.9688 58.1713 81.0547 58 81.0547C57.8287 81.0547 57.7002 80.9688 57.6146 80.7969L40.0139 39.8047ZM66.2222 72.2891L82.0243 39.8047H95L66.8646 72.6758C66.7789 72.8477 66.6076 72.8906 66.3507 72.8047C66.1794 72.6328 66.1366 72.4609 66.2222 72.2891Z" fill="#DFF2FF"/>
<path d="M698.438 105.902L710 126.527H697.024L688.16 105.902H698.438ZM681.993 105.902L690.858 126.527H655.142L664.007 105.902H681.993ZM647.562 105.902H657.84L648.976 126.527H636L647.562 105.902ZM636 130.652H648.976L664.778 163.137C664.863 163.309 664.778 163.48 664.521 163.652C664.35 163.738 664.221 163.695 664.135 163.523L636 130.652ZM655.014 130.652H690.986L673.385 171.645C673.3 171.816 673.171 171.902 673 171.902C672.829 171.902 672.7 171.816 672.615 171.645L655.014 130.652ZM681.222 163.137L697.024 130.652H710L681.865 163.523C681.779 163.695 681.608 163.738 681.351 163.652C681.179 163.48 681.137 163.309 681.222 163.137Z" fill="#DFF2FF"/>
<path d="M747.368 16.9768L747.909 30.9592L741.048 27.4311L741.934 14.1823L747.368 16.9768ZM738.673 12.5056L737.787 25.7544L718.902 16.0434L729.162 7.61512L738.673 12.5056ZM720.467 3.14386L725.901 5.93839L715.641 14.3667L708.779 10.8386L720.467 3.14386ZM707.665 13.0063L714.526 16.5344L714.104 37.9017C714.103 38.0154 714.011 38.0824 713.829 38.1028C713.715 38.1014 713.659 38.0439 713.66 37.9303L707.665 13.0063ZM717.719 18.1762L736.74 27.9571L716.357 44.7131C716.265 44.7801 716.174 44.7903 716.083 44.7438C715.993 44.6972 715.948 44.6171 715.949 44.5035L717.719 18.1762ZM722.8 42.373L739.933 29.5989L746.795 33.127L723.035 42.7509C722.943 42.8179 722.841 42.7939 722.728 42.6789C722.684 42.542 722.708 42.44 722.8 42.373Z" fill="#DFF2FF"/>
<path d="M30.957 125.852L43.417 132.219L36.9836 136.478L25.8612 129.225L30.957 125.852ZM22.8037 131.249L33.9261 138.502L16.2182 150.224L13.8861 137.152L22.8037 131.249ZM5.73278 142.549L10.8286 139.176L13.1607 152.248L6.72724 156.506L5.73278 142.549ZM8.07269 158.539L14.5061 154.28L32.9363 165.1C33.0349 165.157 33.0485 165.27 32.9771 165.439C32.9202 165.537 32.8425 165.558 32.744 165.502L8.07269 158.539ZM17.4999 152.299L35.3352 140.492L39.979 166.467C39.9926 166.58 39.957 166.664 39.872 166.721C39.7871 166.777 39.6954 166.777 39.5969 166.72L17.4999 152.299ZM41.0896 159.703L38.329 138.511L44.7624 134.252L41.5342 159.683C41.5478 159.796 41.4769 159.873 41.3215 159.915C41.1805 159.886 41.1032 159.816 41.0896 159.703Z" fill="#DFF2FF"/>
<path d="M648.915 28.7778L657.781 36.7219L651.564 38.8276L643.99 30.4457L648.915 28.7778ZM641.036 31.4464L648.609 39.8283L631.498 45.6242L632.418 34.3652L641.036 31.4464ZM624.54 37.0338L629.464 35.3659L628.543 46.6249L622.326 48.7306L624.54 37.0338ZM622.992 50.6947L629.208 48.589L642.018 61.4918C642.087 61.5597 642.074 61.6554 641.978 61.779C641.91 61.8477 641.842 61.8481 641.773 61.7801L622.992 50.6947ZM632.101 47.6091L649.336 41.7715L647.514 64.1458C647.501 64.2416 647.453 64.3033 647.371 64.3311C647.289 64.3589 647.214 64.3389 647.145 64.2709L632.101 47.6091ZM649.897 58.8232L652.229 40.7916L658.446 38.6859L650.267 58.9031C650.254 58.9988 650.179 59.047 650.042 59.0478C649.932 58.9938 649.884 58.9189 649.897 58.8232Z" fill="#DFF2FF"/>
<path d="M170.184 91.0861L172.043 102.844L165.892 100.552L165.312 89.2702L170.184 91.0861ZM162.389 88.1807L162.969 99.4623L146.041 93.1522L153.864 85.0029L162.389 88.1807ZM146.069 82.0975L150.941 83.9134L143.118 92.0627L136.967 89.7701L146.069 82.0975ZM136.243 91.7132L142.394 94.0058L144.18 112.1C144.19 112.196 144.119 112.261 143.968 112.297C143.871 112.307 143.818 112.264 143.807 112.168L136.243 91.7132ZM145.256 95.0726L162.306 101.428L146.766 117.628C146.695 117.694 146.619 117.712 146.538 117.681C146.457 117.651 146.411 117.588 146.401 117.492L145.256 95.0726ZM151.974 115.005L165.168 102.495L171.318 104.787L152.211 115.301C152.14 115.366 152.051 115.356 151.945 115.27C151.894 115.159 151.904 115.071 151.974 115.005Z" fill="#DFF2FF"/>
<path d="M772.76 104.581L774.224 112.3L770.121 110.912L769.51 103.482L772.76 104.581ZM767.56 102.822L768.171 110.252L756.877 106.432L761.872 100.898L767.56 102.822ZM756.672 99.1391L759.922 100.238L754.927 105.772L750.823 104.384L756.672 99.1391ZM750.385 105.681L754.488 107.069L756.032 118.968C756.041 119.031 755.996 119.076 755.896 119.102C755.833 119.111 755.797 119.084 755.788 119.021L750.385 105.681ZM756.398 107.714L767.773 111.562L757.85 122.562C757.804 122.607 757.755 122.62 757.7 122.602C757.646 122.584 757.615 122.543 757.606 122.48L756.398 107.714ZM761.232 120.727L769.683 112.208L773.786 113.596L761.394 120.917C761.349 120.962 761.29 120.957 761.218 120.902C761.182 120.83 761.187 120.772 761.232 120.727Z" fill="#DFF2FF"/>
<path d="M175.344 7.80254L182.965 9.7108L179.984 12.8537L172.983 10.292L175.344 7.80254ZM171.566 11.7856L178.567 14.3474L170.362 22.9981L167.434 16.1421L171.566 11.7856ZM163.656 20.1252L166.017 17.6358L168.946 24.4917L165.965 27.6346L163.656 20.1252ZM166.958 28.5764L169.939 25.4335L181.388 29.0225C181.449 29.041 181.471 29.101 181.453 29.2024C181.435 29.2635 181.395 29.2849 181.334 29.2664L166.958 28.5764ZM171.326 23.971L179.59 15.258L185.414 28.88C185.435 28.94 185.426 28.9907 185.387 29.0322C185.348 29.0737 185.298 29.0852 185.237 29.0667L171.326 23.971ZM185.166 25.0394L180.977 13.7955L183.958 10.6526L185.407 24.9721C185.428 25.0321 185.399 25.0834 185.32 25.126C185.239 25.1283 185.188 25.0994 185.166 25.0394Z" fill="#DFF2FF"/>
<path d="M125.017 152.22L128.822 159.094L124.491 159.059L121.586 152.193L125.017 152.22ZM119.527 152.177L122.432 159.043L110.51 158.948L113.523 152.129L119.527 152.177ZM108.034 152.085L111.465 152.113L108.451 158.932L104.119 158.897L108.034 152.085ZM104.109 160.266L108.44 160.3L113.629 171.119C113.658 171.176 113.629 171.233 113.542 171.289C113.485 171.317 113.442 171.303 113.414 171.245L104.109 160.266ZM110.456 160.316L122.464 160.412L116.48 173.964C116.451 174.021 116.408 174.049 116.351 174.049C116.294 174.048 116.251 174.019 116.223 173.962L110.456 160.316ZM119.119 171.162L124.48 160.428L128.811 160.462L119.332 171.292C119.303 171.349 119.246 171.363 119.161 171.334C119.104 171.276 119.09 171.219 119.119 171.162Z" fill="#DFF2FF"/>
</svg>
