<svg width="504" height="301" viewBox="0 0 504 301" fill="none" xmlns="http://www.w3.org/2000/svg">
<path d="M441.438 191L453 211.625H440.024L431.16 191H441.438ZM424.993 191L433.858 211.625H398.142L407.007 191H424.993ZM390.562 191H400.84L391.976 211.625H379L390.562 191ZM379 215.75H391.976L407.778 248.234C407.863 248.406 407.778 248.578 407.521 248.75C407.35 248.836 407.221 248.793 407.135 248.621L379 215.75ZM398.014 215.75H433.986L416.385 256.742C416.3 256.914 416.171 257 416 257C415.829 257 415.7 256.914 415.615 256.742L398.014 215.75ZM424.222 248.234L440.024 215.75H453L424.865 248.621C424.779 248.793 424.608 248.836 424.351 248.75C424.179 248.578 424.137 248.406 424.222 248.234Z" fill="#DFF2FF"/>
<path d="M35.8083 229.369L53.6762 234.558L46.442 241.707L30.0782 235.031L35.8083 229.369ZM26.6402 238.428L43.004 245.104L23.0919 264.779L16.6125 248.337L26.6402 238.428ZM7.44439 257.396L13.1745 251.734L19.6539 268.176L12.4196 275.325L7.44439 257.396ZM14.704 277.636L21.9382 270.488L48.7372 279.988C48.8801 280.037 48.9276 280.181 48.8795 280.419C48.8316 280.561 48.7362 280.608 48.5932 280.559L14.704 277.636ZM25.3046 267.162L45.3599 247.345L58.2476 280.014C58.295 280.158 58.271 280.277 58.1755 280.371C58.08 280.465 57.9607 280.488 57.8178 280.439L25.3046 267.162ZM57.9054 270.929L48.7263 244.018L55.9606 236.87L58.4776 270.792C58.5251 270.935 58.4534 271.054 58.2625 271.147C58.0718 271.145 57.9528 271.072 57.9054 270.929Z" fill="#DFF2FF"/>
<path d="M419.848 64.9768L420.389 78.9592L413.528 75.4311L414.413 62.1823L419.848 64.9768ZM411.152 60.5056L410.267 73.7544L391.381 64.0434L401.642 55.6151L411.152 60.5056ZM392.946 51.1439L398.381 53.9384L388.12 62.3667L381.259 58.8386L392.946 51.1439ZM380.144 61.0063L387.006 64.5344L386.584 85.9017C386.582 86.0154 386.491 86.0824 386.308 86.1028C386.195 86.1014 386.138 86.0439 386.139 85.9303L380.144 61.0063ZM390.198 66.1762L409.22 75.9571L388.836 92.7131C388.745 92.7801 388.653 92.7903 388.563 92.7438C388.472 92.6972 388.428 92.6171 388.429 92.5035L390.198 66.1762ZM395.279 90.373L412.413 77.5989L419.274 81.127L395.514 90.7509C395.423 90.8179 395.32 90.7939 395.208 90.6789C395.164 90.542 395.187 90.44 395.279 90.373Z" fill="#DFF2FF"/>
<path d="M40.9722 30.5186L54.1651 35.1822L48.3515 40.2545L36.3674 34.5362L40.9722 30.5186ZM33.6045 36.9468L45.5886 42.665L29.587 56.6264L25.5461 43.9777L33.6045 36.9468ZM18.1784 50.4059L22.7833 46.3883L26.8241 59.0369L21.0105 64.1092L18.1784 50.4059ZM22.613 65.9459L28.4266 60.8736L48.1261 69.1604C48.2312 69.2035 48.2596 69.3135 48.2113 69.4905C48.1679 69.5957 48.0937 69.6268 47.9885 69.5837L22.613 65.9459ZM31.1319 58.5133L47.2487 44.4515L55.2877 69.5838C55.3161 69.6938 55.292 69.7823 55.2152 69.8493C55.1385 69.9162 55.0475 69.9282 54.9424 69.8851L31.1319 58.5133ZM55.4938 62.7322L49.954 42.0911L55.7676 37.0189L55.9318 62.6533C55.9602 62.7633 55.9001 62.8494 55.7516 62.9116C55.6081 62.902 55.5222 62.8422 55.4938 62.7322Z" fill="#DFF2FF"/>
<path d="M486.913 100.875L495.779 108.82L489.562 110.925L481.988 102.543L486.913 100.875ZM479.034 103.544L486.607 111.926L469.496 117.722L470.416 106.463L479.034 103.544ZM462.538 109.131L467.462 107.464L466.541 118.723L460.324 120.828L462.538 109.131ZM460.99 122.792L467.206 120.687L480.016 133.589C480.085 133.657 480.072 133.753 479.976 133.877C479.908 133.945 479.84 133.946 479.771 133.878L460.99 122.792ZM470.099 119.707L487.334 113.869L485.512 136.243C485.499 136.339 485.451 136.401 485.369 136.429C485.287 136.457 485.212 136.437 485.143 136.369L470.099 119.707ZM487.895 130.921L490.227 112.889L496.444 110.784L488.265 131.001C488.252 131.096 488.177 131.145 488.04 131.145C487.93 131.091 487.882 131.017 487.895 130.921Z" fill="#DFF2FF"/>
<path d="M425.758 138.679L427.222 146.397L423.119 145.009L422.508 137.579L425.758 138.679ZM420.558 136.92L421.169 144.35L409.875 140.529L414.87 134.996L420.558 136.92ZM409.67 133.237L412.92 134.336L407.925 139.87L403.821 138.482L409.67 133.237ZM403.383 139.778L407.486 141.166L409.03 153.065C409.039 153.129 408.994 153.173 408.894 153.2C408.831 153.209 408.795 153.181 408.786 153.118L403.383 139.778ZM409.396 141.812L420.771 145.66L410.848 156.66C410.802 156.705 410.753 156.718 410.698 156.7C410.644 156.681 410.613 156.641 410.604 156.577L409.396 141.812ZM414.23 154.824L422.681 146.306L426.784 147.694L414.392 155.015C414.347 155.059 414.288 155.055 414.216 155C414.18 154.928 414.185 154.869 414.23 154.824Z" fill="#DFF2FF"/>
<path d="M460.452 1.99841L466.671 4.74447L463.667 6.98697L458.073 3.77465L460.452 1.99841ZM456.646 4.84039L462.24 8.05272L453.973 14.2251L452.483 7.94881L456.646 4.84039ZM448.676 10.7908L451.055 9.01455L452.546 15.2909L449.542 17.5334L448.676 10.7908ZM450.251 18.4823L453.254 16.2398L462.491 20.9811C462.54 21.0058 462.55 21.0602 462.52 21.1441C462.495 21.1935 462.458 21.2058 462.409 21.1811L450.251 18.4823ZM454.652 15.1962L462.978 8.97938L465.945 21.4505C465.954 21.5049 465.939 21.5468 465.9 21.5765C465.86 21.6061 465.816 21.6085 465.766 21.5838L454.652 15.1962ZM466.297 18.1391L464.376 7.93584L467.379 5.69333L466.512 18.1171C466.522 18.1714 466.49 18.2109 466.416 18.2355C466.347 18.2256 466.307 18.1935 466.297 18.1391Z" fill="#DFF2FF"/>
</svg>
