<svg viewBox="0 0 706 195" fill="none" xmlns="http://www.w3.org/2000/svg">
<path d="M83.4375 31L95 51.625H82.0243L73.1597 31H83.4375ZM66.9931 31L75.8576 51.625H40.1424L49.0069 31H66.9931ZM32.5625 31H42.8403L33.9757 51.625H21L32.5625 31ZM21 55.75H33.9757L49.7778 88.2344C49.8634 88.4062 49.7778 88.5781 49.5208 88.75C49.3495 88.8359 49.2211 88.793 49.1354 88.6211L21 55.75ZM40.0139 55.75H75.9861L58.3854 96.7422C58.2998 96.9141 58.1713 97 58 97C57.8287 97 57.7002 96.9141 57.6146 96.7422L40.0139 55.75ZM66.2222 88.2344L82.0243 55.75H95L66.8646 88.6211C66.7789 88.793 66.6076 88.8359 66.3507 88.75C66.1794 88.5781 66.1366 88.4062 66.2222 88.2344Z" fill="#DFF2FF"/>
<path d="M627.438 121L639 141.625H626.024L617.16 121H627.438ZM610.993 121L619.858 141.625H584.142L593.007 121H610.993ZM576.562 121H586.84L577.976 141.625H565L576.562 121ZM565 145.75H577.976L593.778 178.234C593.863 178.406 593.778 178.578 593.521 178.75C593.35 178.836 593.221 178.793 593.135 178.621L565 145.75ZM584.014 145.75H619.986L602.385 186.742C602.3 186.914 602.171 187 602 187C601.829 187 601.7 186.914 601.615 186.742L584.014 145.75ZM610.222 178.234L626.024 145.75H639L610.865 178.621C610.779 178.793 610.608 178.836 610.351 178.75C610.179 178.578 610.137 178.406 610.222 178.234Z" fill="#DFF2FF"/>
<path d="M676.368 32.0745L676.908 46.0569L670.047 42.5288L670.933 29.2799L676.368 32.0745ZM667.672 27.6032L666.786 40.8521L647.901 31.1411L658.161 22.7128L667.672 27.6032ZM649.466 18.2415L654.9 21.0361L644.64 29.4643L637.778 25.9362L649.466 18.2415ZM636.664 28.1039L643.525 31.632L643.103 52.9994C643.102 53.113 643.01 53.18 642.828 53.2005C642.714 53.1991 642.658 53.1416 642.659 53.028L636.664 28.1039ZM646.718 33.2738L665.739 43.0547L645.356 59.8107C645.264 59.8778 645.173 59.888 645.082 59.8414C644.992 59.7948 644.947 59.7148 644.948 59.6011L646.718 33.2738ZM651.799 57.4707L668.932 44.6965L675.794 48.2246L652.034 57.8485C651.942 57.9156 651.84 57.8916 651.727 57.7766C651.683 57.6397 651.707 57.5377 651.799 57.4707Z" fill="#DFF2FF"/>
<path d="M30.957 141.795L43.417 148.163L36.9836 152.421L25.8612 145.168L30.957 141.795ZM22.8037 147.192L33.9261 154.445L16.2182 166.167L13.8861 153.095L22.8037 147.192ZM5.73278 158.492L10.8286 155.119L13.1607 168.191L6.72724 172.45L5.73278 158.492ZM8.07269 174.482L14.5061 170.224L32.9363 181.043C33.0349 181.1 33.0485 181.213 32.9771 181.382C32.9202 181.48 32.8425 181.501 32.744 181.445L8.07269 174.482ZM17.4999 168.242L35.3352 156.436L39.979 182.411C39.9926 182.523 39.957 182.608 39.872 182.664C39.7871 182.72 39.6954 182.72 39.5969 182.664L17.4999 168.242ZM41.0896 175.646L38.329 154.454L44.7624 150.195L41.5342 175.626C41.5478 175.739 41.4769 175.816 41.3215 175.858C41.1805 175.83 41.1032 175.759 41.0896 175.646Z" fill="#DFF2FF"/>
<path d="M577.915 43.8755L586.781 51.8195L580.564 53.9252L572.99 45.5433L577.915 43.8755ZM570.036 46.5441L577.609 54.9259L560.498 60.7218L561.418 49.4628L570.036 46.5441ZM553.54 52.1315L558.464 50.4636L557.543 61.7225L551.326 63.8282L553.54 52.1315ZM551.992 65.7923L558.208 63.6866L571.018 76.5894C571.087 76.6574 571.074 76.7531 570.978 76.8766C570.91 76.9453 570.842 76.9457 570.773 76.8778L551.992 65.7923ZM561.101 62.7067L578.336 56.8692L576.514 79.2435C576.501 79.3392 576.453 79.401 576.371 79.4288C576.289 79.4566 576.214 79.4365 576.145 79.3686L561.101 62.7067ZM578.897 73.9208L581.229 55.8893L587.446 53.7836L579.267 74.0007C579.254 74.0964 579.179 74.1447 579.042 74.1455C578.932 74.0914 578.884 74.0166 578.897 73.9208Z" fill="#DFF2FF"/>
<path d="M170.185 107.031L172.044 118.79L165.893 116.497L165.313 105.216L170.185 107.031ZM162.39 104.126L162.97 115.408L146.042 109.098L153.865 100.948L162.39 104.126ZM146.07 98.0428L150.942 99.8587L143.119 108.008L136.968 105.715L146.07 98.0428ZM136.244 107.659L142.395 109.951L144.181 128.045C144.191 128.141 144.12 128.207 143.968 128.242C143.872 128.253 143.819 128.21 143.808 128.113L136.244 107.659ZM145.257 111.018L162.307 117.373L146.767 133.573C146.696 133.639 146.62 133.657 146.539 133.627C146.458 133.596 146.412 133.533 146.402 133.437L145.257 111.018ZM151.975 130.95L165.169 118.44L171.319 120.733L152.212 131.246C152.141 131.312 152.052 131.302 151.946 131.216C151.895 131.105 151.905 131.016 151.975 130.95Z" fill="#DFF2FF"/>
<path d="M701.76 119.679L703.224 127.397L699.121 126.009L698.51 118.579L701.76 119.679ZM696.56 117.92L697.171 125.35L685.877 121.529L690.872 115.996L696.56 117.92ZM685.672 114.237L688.922 115.336L683.927 120.87L679.823 119.482L685.672 114.237ZM679.385 120.778L683.488 122.166L685.032 134.065C685.041 134.129 684.996 134.173 684.896 134.2C684.833 134.209 684.797 134.181 684.788 134.118L679.385 120.778ZM685.398 122.812L696.773 126.66L686.85 137.66C686.804 137.705 686.755 137.718 686.7 137.7C686.646 137.681 686.615 137.641 686.606 137.577L685.398 122.812ZM690.232 135.824L698.683 127.306L702.786 128.694L690.394 136.015C690.349 136.059 690.29 136.055 690.218 136C690.182 135.928 690.187 135.869 690.232 135.824Z" fill="#DFF2FF"/>
<path d="M150.344 2.80059L157.965 4.70885L154.984 7.85174L147.983 5.29001L150.344 2.80059ZM146.566 6.78367L153.567 9.3454L145.362 17.9961L142.434 11.1402L146.566 6.78367ZM138.656 15.1232L141.017 12.6338L143.946 19.4898L140.965 22.6327L138.656 15.1232ZM141.958 23.5745L144.939 20.4316L156.388 24.0205C156.449 24.039 156.471 24.099 156.453 24.2005C156.435 24.2616 156.395 24.2829 156.334 24.2644L141.958 23.5745ZM146.326 18.969L154.59 10.2561L160.414 23.878C160.435 23.938 160.426 23.9888 160.387 24.0303C160.348 24.0717 160.298 24.0832 160.237 24.0647L146.326 18.969ZM160.166 20.0375L155.977 8.79352L158.958 5.65062L160.407 19.9702C160.428 20.0301 160.399 20.0814 160.32 20.1241C160.239 20.1263 160.188 20.0974 160.166 20.0375Z" fill="#DFF2FF"/>
<path d="M125.017 168.166L128.822 175.039L124.491 175.004L121.586 168.138L125.017 168.166ZM119.527 168.122L122.432 174.988L110.51 174.893L113.523 168.074L119.527 168.122ZM108.034 168.031L111.465 168.058L108.451 174.877L104.119 174.842L108.034 168.031ZM104.109 176.211L108.44 176.245L113.629 187.064C113.658 187.121 113.629 187.178 113.542 187.234C113.485 187.263 113.442 187.248 113.414 187.191L104.109 176.211ZM110.456 176.261L122.464 176.357L116.48 189.909C116.451 189.966 116.408 189.994 116.351 189.994C116.294 189.993 116.251 189.965 116.223 189.907L110.456 176.261ZM119.119 187.108L124.48 176.373L128.811 176.407L119.332 187.238C119.303 187.295 119.246 187.308 119.161 187.279C119.104 187.222 119.09 187.165 119.119 187.108Z" fill="#DFF2FF"/>
</svg>
