<svg width="277" height="277" viewBox="0 5 277 277" fill="none" xmlns="http://www.w3.org/2000/svg">
<path d="M0 8.00001C0 3.58173 3.58172 0 8 0H269C273.418 0 277 3.58172 277 8V277H0V8.00001Z" fill="#BFD3E4"/>
<path d="M157.5 122.5H109.5C108.395 122.5 107.5 123.395 107.5 124.5V160.5C107.5 161.605 108.395 162.5 109.5 162.5H157.5C158.605 162.5 159.5 161.605 159.5 160.5V124.5C159.5 123.395 158.605 122.5 157.5 122.5Z" stroke="white" stroke-width="2" stroke-miterlimit="10"/>
<path d="M116.5 120.5V114.5H169.5V154.5H161.5" stroke="white" stroke-width="2" stroke-miterlimit="10"/>
<path d="M107.5 152.5L121.5 138.5L135.5 154.5L145.5 148.5L159.5 160.5" stroke="white" stroke-width="2" stroke-miterlimit="10"/>
<path d="M146.5 140.5C149.261 140.5 151.5 138.261 151.5 135.5C151.5 132.739 149.261 130.5 146.5 130.5C143.739 130.5 141.5 132.739 141.5 135.5C141.5 138.261 143.739 140.5 146.5 140.5Z" stroke="white" stroke-width="2" stroke-miterlimit="10"/>
</svg>
