<svg x="50%" y="50%" overflow="visible" viewBox="0 0 222 222" fill="none" xmlns="http://www.w3.org/2000/svg">
<path d="M0 8.0703C0 3.65202 3.58172 0.0703125 8 0.0703125H213.6C218.018 0.0703125 221.6 3.65203 221.6 8.07031V213.27C221.6 217.689 218.018 221.27 213.6 221.27H7.99999C3.58171 221.27 0 217.689 0 213.27V8.0703Z" fill=""/>
<path d="M129.8 94.6699H81.7999C80.6954 94.6699 79.7999 95.5654 79.7999 96.6699V132.67C79.7999 133.774 80.6954 134.67 81.7999 134.67H129.8C130.904 134.67 131.8 133.774 131.8 132.67V96.6699C131.8 95.5654 130.904 94.6699 129.8 94.6699Z" stroke="white" stroke-width="2" stroke-miterlimit="10"/>
<path d="M88.7999 92.6699V86.6699H141.8V126.67H133.8" stroke="white" stroke-width="2" stroke-miterlimit="10"/>
<path d="M79.7999 124.67L93.7999 110.67L107.8 126.67L117.8 120.67L131.8 132.67" stroke="white" stroke-width="2" stroke-miterlimit="10"/>
<path d="M118.8 112.67C121.561 112.67 123.8 110.431 123.8 107.67C123.8 104.908 121.561 102.67 118.8 102.67C116.039 102.67 113.8 104.908 113.8 107.67C113.8 110.431 116.039 112.67 118.8 112.67Z" stroke="white" stroke-width="2" stroke-miterlimit="10"/>
</svg>
