<svg width="30" height="30" viewBox="0 0 30 30" fill="none" xmlns="http://www.w3.org/2000/svg">
<path d="M0 4C0 1.79086 1.79086 0 4 0H26C28.2091 0 30 1.79086 30 4V26C30 28.2091 28.2091 30 26 30H4C1.79086 30 0 28.2091 0 26V4Z" fill="#0F4AE3"/>
<path d="M20.4141 7.75L22.875 12.125H20.1133L18.2266 7.75H20.4141ZM16.9141 7.75L18.8008 12.125H11.1992L13.0859 7.75H16.9141ZM9.58594 7.75H11.7734L9.88672 12.125H7.125L9.58594 7.75ZM7.125 13H9.88672L13.25 19.8906C13.2682 19.9271 13.25 19.9635 13.1953 20C13.1589 20.0182 13.1315 20.0091 13.1133 19.9727L7.125 13ZM11.1719 13H18.8281L15.082 21.6953C15.0638 21.7318 15.0365 21.75 15 21.75C14.9635 21.75 14.9362 21.7318 14.918 21.6953L11.1719 13ZM16.75 19.8906L20.1133 13H22.875L16.8867 19.9727C16.8685 20.0091 16.832 20.0182 16.7773 20C16.7409 19.9635 16.7318 19.9271 16.75 19.8906Z" fill="white"/>
</svg>
