<svg width="30" height="30" viewBox="0 0 30 30" fill="none" xmlns="http://www.w3.org/2000/svg">
<path d="M0 4C0 1.79086 1.79086 0 4 0H26C28.2091 0 30 1.79086 30 4V26C30 28.2091 28.2091 30 26 30H4C1.79086 30 0 28.2091 0 26V4Z" fill="#0F4AE3"/>
<path d="M19.8125 8.625C20.1771 8.625 20.487 8.7526 20.7422 9.00781C20.9974 9.26302 21.125 9.57292 21.125 9.9375V19.5625C21.125 19.9271 20.9974 20.237 20.7422 20.4922C20.487 20.7474 20.1771 20.875 19.8125 20.875H10.1875C9.82292 20.875 9.51302 20.7474 9.25781 20.4922C9.0026 20.237 8.875 19.9271 8.875 19.5625V9.9375C8.875 9.57292 9.0026 9.26302 9.25781 9.00781C9.51302 8.7526 9.82292 8.625 10.1875 8.625H19.8125Z" fill="white"/>
</svg>
