<svg width="30" height="30" viewBox="0 0 30 30" fill="none" xmlns="http://www.w3.org/2000/svg">
<path d="M0 4C0 1.79086 1.79086 0 4 0H26C28.2091 0 30 1.79086 30 4V26C30 28.2091 28.2091 30 26 30H4C1.79086 30 0 28.2091 0 26V4Z" fill="#0F4AE3"/>
<path d="M20.5781 14.75L21.8359 15.9805C22.0182 16.1628 22.0729 16.3815 22 16.6367C21.9271 16.8737 21.7721 17.0195 21.5352 17.0742L19.8125 17.5117L20.3047 19.207C20.3776 19.4622 20.3229 19.681 20.1406 19.8633C19.9583 20.0456 19.7396 20.1003 19.4844 20.0273L17.7891 19.5352L17.3516 21.2578C17.2969 21.513 17.1419 21.668 16.8867 21.7227C16.6315 21.7956 16.4219 21.7409 16.2578 21.5586L15.0273 20.3008L13.7969 21.5586C13.6328 21.7409 13.4232 21.7956 13.168 21.7227C12.9128 21.668 12.7578 21.513 12.7031 21.2578L12.2656 19.5352L10.5703 20.0273C10.3151 20.1003 10.0964 20.0456 9.91406 19.8633C9.73177 19.681 9.67708 19.4622 9.75 19.207L10.2422 17.5117L8.51953 17.0742C8.28255 17.0195 8.1276 16.8737 8.05469 16.6367C7.98177 16.3815 8.03646 16.1628 8.21875 15.9805L9.47656 14.75L8.21875 13.5195C8.03646 13.3372 7.98177 13.1276 8.05469 12.8906C8.1276 12.6354 8.28255 12.4805 8.51953 12.4258L10.2422 11.9883L9.75 10.293C9.67708 10.0378 9.73177 9.81901 9.91406 9.63672C10.0964 9.45443 10.3151 9.39974 10.5703 9.47266L12.2656 9.96484L12.7031 8.24219C12.7578 7.98698 12.9128 7.83203 13.168 7.77734C13.4232 7.70443 13.6328 7.75911 13.7969 7.94141L15.0273 9.22656L16.2578 7.94141C16.4401 7.75911 16.6497 7.70443 16.8867 7.77734C17.1419 7.85026 17.2969 8.00521 17.3516 8.24219L17.7891 9.96484L19.4844 9.47266C19.7396 9.39974 19.9583 9.45443 20.1406 9.63672C20.3229 9.81901 20.3776 10.0378 20.3047 10.293L19.8125 11.9883L21.5352 12.4258C21.7721 12.4805 21.9271 12.6354 22 12.8906C22.0729 13.1276 22.0182 13.3372 21.8359 13.5195L20.5781 14.75Z" fill="white"/>
</svg>
