<svg width="30" height="30" viewBox="0 0 30 30" fill="none" xmlns="http://www.w3.org/2000/svg">
<path d="M0 4C0 1.79086 1.79086 0 4 0H26C28.2091 0 30 1.79086 30 4V26C30 28.2091 28.2091 30 26 30H4C1.79086 30 0 28.2091 0 26V4Z" fill=""/>
<path d="M10.1875 9.96484C11.5182 8.63411 13.1224 7.96875 15 7.96875C16.8776 7.96875 18.4727 8.63411 19.7852 9.96484C21.1159 11.2773 21.7812 12.8724 21.7812 14.75C21.7812 16.6276 21.1159 18.2318 19.7852 19.5625C18.4727 20.875 16.8776 21.5312 15 21.5312C13.1224 21.5312 11.5182 20.875 10.1875 19.5625C8.875 18.2318 8.21875 16.6276 8.21875 14.75C8.21875 12.8724 8.875 11.2773 10.1875 9.96484Z" fill="white"/>
</svg>
