<svg width="20" height="14" viewBox="0 0 20 14" fill="none" xmlns="http://www.w3.org/2000/svg">
<path d="M19.1758 2.64453C18.9648 1.80078 18.2969 1.13281 17.4883 0.921875C15.9766 0.5 10 0.5 10 0.5C10 0.5 3.98828 0.5 2.47656 0.921875C1.66797 1.13281 1 1.80078 0.789062 2.64453C0.367188 4.12109 0.367188 7.28516 0.367188 7.28516C0.367188 7.28516 0.367188 10.4141 0.789062 11.9258C1 12.7695 1.66797 13.4023 2.47656 13.6133C3.98828 14 10 14 10 14C10 14 15.9766 14 17.4883 13.6133C18.2969 13.4023 18.9648 12.7695 19.1758 11.9258C19.5977 10.4141 19.5977 7.28516 19.5977 7.28516C19.5977 7.28516 19.5977 4.12109 19.1758 2.64453ZM8.03125 10.1328V4.4375L13.0234 7.28516L8.03125 10.1328Z" fill="white"/>
</svg>
