<?xml version="1.0" standalone="no"?>
<!DOCTYPE svg PUBLIC "-//W3C//DTD SVG 20010904//EN"
 "http://www.w3.org/TR/2001/REC-SVG-20010904/DTD/svg10.dtd">
<svg version="1.0" xmlns="http://www.w3.org/2000/svg"
 width="650.000000pt" height="650.000000pt" viewBox="0 0 650.000000 650.000000"
 preserveAspectRatio="xMidYMid meet">
<metadata>
Created by potrace 1.14, written by Peter Selinger 2001-2017
</metadata>
<g transform="translate(0.000000,650.000000) scale(0.100000,-0.100000)"
fill="#000000" stroke="none">
<path d="M942 5988 c-44 -79 -90 -161 -102 -183 -12 -22 -39 -69 -60 -105 -20
-36 -49 -86 -63 -112 -15 -26 -46 -83 -70 -125 -24 -43 -55 -98 -69 -123 -119
-213 -172 -306 -178 -315 -4 -5 -27 -46 -50 -90 -24 -44 -51 -92 -61 -107 -11
-14 -19 -29 -19 -32 0 -4 -33 -64 -73 -134 -40 -70 -76 -134 -80 -142 -4 -8
-18 -33 -30 -55 -13 -22 -35 -61 -50 -87 l-27 -48 569 0 568 0 43 103 c24 56
59 135 77 175 18 39 33 75 33 78 0 3 14 35 30 71 17 35 30 67 30 69 0 3 11 29
24 57 42 93 106 246 106 254 0 5 5 14 12 21 6 6 13 17 14 24 1 7 11 33 22 58
18 38 365 842 379 878 4 9 -89 12 -445 12 l-450 0 -80 -142z"/>
<path d="M2255 5648 c-114 -266 -218 -505 -230 -533 -12 -27 -48 -111 -80
-185 -32 -74 -66 -153 -75 -175 -38 -83 -180 -416 -180 -420 0 -3 702 -5 1560
-5 858 0 1560 1 1560 3 0 4 -122 292 -144 339 -8 18 -38 87 -66 153 -133 309
-264 614 -280 650 -10 22 -72 166 -138 320 -66 154 -126 292 -133 308 l-12 27
-787 0 -787 0 -208 -482z"/>
<path d="M4580 6125 c0 -2 9 -24 20 -47 11 -24 40 -90 64 -148 49 -117 168
-393 196 -455 10 -22 32 -74 49 -115 50 -117 77 -179 110 -253 17 -37 31 -70
31 -72 0 -2 11 -28 24 -57 13 -29 43 -98 66 -153 23 -55 52 -122 65 -150 12
-27 51 -116 85 -197 l63 -148 568 0 569 0 -27 48 c-14 26 -64 115 -111 197
-46 83 -146 260 -222 395 -137 245 -161 287 -201 358 -12 20 -36 62 -52 92
-17 30 -63 113 -104 183 -40 71 -73 130 -73 132 0 2 -13 26 -29 53 -15 26 -41
70 -56 98 -15 27 -52 93 -83 147 l-55 97 -448 0 c-247 0 -449 -2 -449 -5z"/>
<path d="M102 3863 c50 -60 97 -113 102 -119 6 -7 18 -20 26 -30 29 -35 264
-309 275 -320 5 -6 30 -35 55 -64 25 -30 74 -88 110 -130 36 -41 76 -88 90
-104 14 -17 41 -48 61 -70 20 -23 47 -54 60 -70 13 -16 29 -34 34 -40 6 -6 35
-40 65 -76 30 -36 57 -67 60 -70 7 -6 406 -471 464 -539 21 -25 61 -73 90
-105 73 -84 77 -88 121 -142 22 -26 45 -52 50 -58 6 -6 37 -43 70 -81 33 -39
62 -72 65 -75 3 -3 27 -32 55 -65 27 -33 54 -65 60 -71 5 -6 33 -37 60 -69 28
-31 58 -67 68 -79 10 -11 36 -41 57 -66 21 -25 47 -55 57 -66 10 -12 38 -45
63 -74 183 -214 170 -200 191 -187 10 6 19 19 19 27 0 9 -25 67 -56 130 -31
63 -99 203 -151 310 -202 414 -295 604 -413 845 -67 138 -154 315 -193 395
-64 132 -165 341 -464 953 l-107 217 -568 0 -569 0 93 -107z"/>
<path d="M1680 3965 c0 -3 47 -114 104 -248 289 -673 450 -1046 466 -1082 10
-22 51 -116 90 -210 40 -93 76 -177 81 -185 4 -8 17 -40 29 -70 13 -30 33 -77
45 -105 13 -27 70 -160 128 -295 175 -408 418 -972 437 -1015 10 -22 37 -85
60 -140 103 -243 101 -239 128 -243 25 -4 26 -3 127 233 42 99 85 198 95 220
10 22 46 105 80 185 34 80 68 159 75 175 8 17 70 161 138 320 69 160 174 405
235 545 60 140 237 550 392 910 155 360 289 671 297 690 9 19 24 53 34 75 33
74 99 234 99 239 0 4 -706 6 -1570 6 -863 0 -1570 -2 -1570 -5z"/>
<path d="M5242 3743 c-104 -214 -247 -508 -445 -913 -47 -96 -144 -296 -217
-445 -73 -148 -167 -342 -210 -430 -43 -88 -150 -308 -239 -489 -88 -181 -161
-337 -161 -346 0 -10 7 -23 15 -30 16 -14 40 7 125 108 25 30 54 64 65 76 11
13 40 46 65 76 25 29 52 60 60 70 8 10 35 41 60 70 25 29 50 58 55 64 12 13
300 349 330 385 11 13 30 35 43 49 12 14 41 48 65 75 23 28 47 55 52 61 6 6
48 56 95 111 47 55 89 105 95 111 5 6 33 37 60 70 28 32 82 95 120 139 39 45
89 104 112 131 41 49 66 78 106 124 12 14 47 54 77 90 30 36 62 72 70 80 8 8
37 42 64 75 28 33 57 67 65 76 9 9 34 38 56 64 22 27 45 53 50 59 6 6 41 47
79 91 38 44 78 91 90 105 12 14 93 108 180 210 152 177 175 204 239 278 l29
32 -569 0 -569 0 -112 -227z"/>
</g>
</svg>
