<svg width="12" height="10" viewBox="0 0 12 10" fill="none" xmlns="http://www.w3.org/2000/svg">
	<path fill-rule="evenodd" clip-rule="evenodd" d="M4.64551 4.18029L5.98523 7.15144L7.97921 6.00199L7.98072 6.00139V3.70068L4.64551 4.18029Z" fill="#8C8C8C"/>
	<path fill-rule="evenodd" clip-rule="evenodd" d="M10.561 1.97564L9.31645 1.50686L7.98633 1.39941V8.54912L9.98179 9.69919L11.5568 6.47591L10.5634 3.35918L10.561 1.97564Z" fill="#393939"/>
	<path fill-rule="evenodd" clip-rule="evenodd" d="M10.4354 1.40186L9.97325 2.55161H9.97266V9.70042L11.9684 8.55067V1.40186H10.4354Z" fill="#8C8C8C"/>
	<path fill-rule="evenodd" clip-rule="evenodd" d="M9.98209 0.25L7.98633 1.40065L9.98209 2.55101L11.9779 1.40065L9.98209 0.25Z" fill="#141414"/>
	<path fill-rule="evenodd" clip-rule="evenodd" d="M5.98676 4.85017V4.84958L3.99127 2.61669L0 1.39941V8.54823L1.99518 9.69857L2.5654 5.74243L3.99127 6.00143V6.00022L5.98706 7.15026V4.85017H5.98676Z" fill="#393939"/>
	<path fill-rule="evenodd" clip-rule="evenodd" d="M1.99638 0.25L0 1.40035L5.98614 4.85231L6.89072 4.33101L7.98163 3.70167L1.99638 0.25Z" fill="#141414"/>
	<path fill-rule="evenodd" clip-rule="evenodd" d="M1.99639 4.8501H1.99609V9.6982L3.99187 8.54815V6.00044L1.99639 4.8501Z" fill="#8C8C8C"/>
</svg>
