<svg viewBox="0 0 12 19" fill="none" xmlns="http://www.w3.org/2000/svg">
<path d="M10.8828 10.1641L3.30469 17.7422C3.1224 17.9245 2.90104 18.0156 2.64062 18.0156C2.38021 18.0156 2.15885 17.9245 1.97656 17.7422L1.11719 16.8828C0.934896 16.7005 0.830729 16.4792 0.804688 16.2188C0.804688 15.9583 0.895833 15.737 1.07812 15.5547L7.13281 9.5L1.07812 3.44531C0.895833 3.26302 0.804688 3.04167 0.804688 2.78125C0.830729 2.52083 0.934896 2.29948 1.11719 2.11719L1.97656 1.25781C2.15885 1.07552 2.38021 0.984375 2.64062 0.984375C2.90104 0.984375 3.1224 1.07552 3.30469 1.25781L10.8828 8.83594C11.0911 9.01823 11.1953 9.23958 11.1953 9.5C11.1953 9.76042 11.0911 9.98177 10.8828 10.1641Z" fill=""/>
</svg>
