<svg  viewBox="0 0 100 100" fill="none" xmlns="http://www.w3.org/2000/svg">
<path d="M0 50C0 22.3858 22.3858 0 50 0C77.6142 0 100 22.3858 100 50C100 77.6142 77.6142 100 50 100C22.3858 100 0 77.6142 0 50Z" fill=""/>
<g clip-path="url(#clip0_2605_8185)">
<path d="M30.814 56.1721C29.1391 53.538 26.0171 49.9203 26.0171 46.7903C26.0541 45.7755 26.3969 44.7955 27.0004 43.9788C27.6039 43.1621 28.4401 42.5467 29.3993 42.2132C29.2448 39.5791 29.1391 36.8963 29.1391 34.2378C29.1391 32.6688 29.1391 31.0835 29.2286 29.5307C29.3102 28.543 29.4872 27.5656 29.757 26.6121C30.9825 22.6202 33.6524 19.2287 37.2451 17.1002C38.5299 16.3148 39.8921 15.6637 41.3103 15.1571C43.9038 14.2222 45.3936 11.0481 48.2148 10.9912C54.8085 10.8205 62.8719 15.6937 67.0997 20.2708C69.7941 23.2504 71.3265 27.0999 71.4169 31.116L71.1486 42.6603C71.7724 42.7898 72.3534 43.0745 72.838 43.488C73.3226 43.9015 73.6951 44.4305 73.921 45.0261C74.8235 48.6764 71.0429 53.2047 69.2868 56.1071C67.6607 58.7818 61.4654 67.4319 61.4654 67.4888C61.499 67.9841 61.6931 68.455 62.0182 68.8302C71.6364 82.0493 100 73.7059 100 99.9978H50.4173L0 100C0 73.7 28.2773 82.0575 37.8874 68.8384C38.3589 68.1473 38.5785 67.7652 38.5703 67.4644C38.5703 67.2937 31.4482 57.2209 30.814 56.2046V56.1721Z" fill="white"/>
</g>
<defs>
<clipPath id="clip0_2605_8185">
<rect width="100" height="100" fill="white"/>
</clipPath>
</defs>
</svg>
