<svg  viewBox="0 0 13 14" fill="none" xmlns="http://www.w3.org/2000/svg">
<path d="M4.04688 7.875H2.95312C2.73438 7.875 2.625 7.76562 2.625 7.54688V6.45312C2.625 6.23438 2.73438 6.125 2.95312 6.125H4.04688C4.26562 6.125 4.375 6.23438 4.375 6.45312V7.54688C4.375 7.76562 4.26562 7.875 4.04688 7.875ZM7 7.54688C7 7.76562 6.89062 7.875 6.67188 7.875H5.57812C5.35938 7.875 5.25 7.76562 5.25 7.54688V6.45312C5.25 6.23438 5.35938 6.125 5.57812 6.125H6.67188C6.89062 6.125 7 6.23438 7 6.45312V7.54688ZM9.625 7.54688C9.625 7.76562 9.51562 7.875 9.29688 7.875H8.20312C7.98438 7.875 7.875 7.76562 7.875 7.54688V6.45312C7.875 6.23438 7.98438 6.125 8.20312 6.125H9.29688C9.51562 6.125 9.625 6.23438 9.625 6.45312V7.54688ZM7 10.1719C7 10.3906 6.89062 10.5 6.67188 10.5H5.57812C5.35938 10.5 5.25 10.3906 5.25 10.1719V9.07812C5.25 8.85938 5.35938 8.75 5.57812 8.75H6.67188C6.89062 8.75 7 8.85938 7 9.07812V10.1719ZM4.375 10.1719C4.375 10.3906 4.26562 10.5 4.04688 10.5H2.95312C2.73438 10.5 2.625 10.3906 2.625 10.1719V9.07812C2.625 8.85938 2.73438 8.75 2.95312 8.75H4.04688C4.26562 8.75 4.375 8.85938 4.375 9.07812V10.1719ZM9.625 10.1719C9.625 10.3906 9.51562 10.5 9.29688 10.5H8.20312C7.98438 10.5 7.875 10.3906 7.875 10.1719V9.07812C7.875 8.85938 7.98438 8.75 8.20312 8.75H9.29688C9.51562 8.75 9.625 8.85938 9.625 9.07812V10.1719ZM12.25 3.0625V12.6875C12.25 13.0521 12.1224 13.362 11.8672 13.6172C11.612 13.8724 11.3021 14 10.9375 14H1.3125C0.947917 14 0.638021 13.8724 0.382812 13.6172C0.127604 13.362 0 13.0521 0 12.6875V3.0625C0 2.69792 0.127604 2.38802 0.382812 2.13281C0.638021 1.8776 0.947917 1.75 1.3125 1.75H2.625V0.328125C2.625 0.109375 2.73438 0 2.95312 0H4.04688C4.26562 0 4.375 0.109375 4.375 0.328125V1.75H7.875V0.328125C7.875 0.109375 7.98438 0 8.20312 0H9.29688C9.51562 0 9.625 0.109375 9.625 0.328125V1.75H10.9375C11.3021 1.75 11.612 1.8776 11.8672 2.13281C12.1224 2.38802 12.25 2.69792 12.25 3.0625ZM10.9375 12.5234V4.375H1.3125V12.5234C1.3125 12.6328 1.36719 12.6875 1.47656 12.6875H10.7734C10.8828 12.6875 10.9375 12.6328 10.9375 12.5234Z" fill=""/>
</svg>
