<svg width="110" height="110" viewBox="0 0 110 110" fill="none" xmlns="http://www.w3.org/2000/svg">
<circle cx="55" cy="55" r="55" fill=""/>
<path d="M79 74.5C79 75.75 78.5625 76.8125 77.6875 77.6875C76.8125 78.5625 75.75 79 74.5 79H35.5C34.25 79 33.1875 78.5625 32.3125 77.6875C31.4375 76.8125 31 75.75 31 74.5V49.8438C31 48.3438 31.5625 47.1562 32.6875 46.2812C35.25 44.2812 40.4062 40.4688 48.1562 34.8438C48.1562 34.8438 48.5938 34.5312 49.4688 33.9062C50.3438 33.2188 51 32.75 51.4375 32.5C51.875 32.1875 52.4375 31.875 53.125 31.5625C53.875 31.1875 54.5 31 55 31C55.5 31 56.0938 31.1875 56.7812 31.5625C57.5312 31.875 58.125 32.1875 58.5625 32.5C59 32.75 59.6562 33.2188 60.5312 33.9062C61.4062 34.5312 61.8438 34.8438 61.8438 34.8438C69.5938 40.4688 74.75 44.2812 77.3125 46.2812C78.4375 47.1562 79 48.3438 79 49.8438V74.5ZM72.8125 56.0312C72.5625 55.6562 72.2188 55.5938 71.7812 55.8438C69.5938 57.5312 66.2812 59.9688 61.8438 63.1562C61.8438 63.1562 61.4062 63.5 60.5312 64.1875C59.6562 64.8125 59 65.2812 58.5625 65.5938C58.125 65.8438 57.5312 66.1562 56.7812 66.5312C56.0938 66.8438 55.5 67 55 67C54.5 67 53.875 66.8438 53.125 66.5312C52.4375 66.1562 51.875 65.8438 51.4375 65.5938C51 65.2812 50.3438 64.8125 49.4688 64.1875C48.5938 63.5 48.1562 63.1562 48.1562 63.1562C43.7188 59.9688 40.4062 57.5312 38.2188 55.8438C37.7812 55.5938 37.4375 55.6562 37.1875 56.0312L36.3438 57.3438C36.2188 57.4688 36.1562 57.5938 36.1562 57.7188C36.1562 57.9688 36.25 58.1875 36.4375 58.375C38.6875 60 42 62.375 46.375 65.5C46.5 65.625 46.9062 65.9688 47.5938 66.5312C48.2812 67.0312 48.8438 67.4375 49.2812 67.75C49.7188 68.0625 50.2812 68.4375 50.9688 68.875C51.7188 69.25 52.4062 69.5312 53.0312 69.7188C53.7188 69.9062 54.375 70 55 70C55.625 70 56.25 69.9062 56.875 69.7188C57.5625 69.5312 58.25 69.25 58.9375 68.875C59.6875 68.4375 60.2812 68.0625 60.7188 67.75C61.1562 67.4375 61.7188 67.0312 62.4062 66.5312C63.0938 65.9688 63.5 65.625 63.625 65.5C68 62.375 71.3125 60 73.5625 58.375C73.75 58.1875 73.8438 57.9688 73.8438 57.7188C73.8438 57.5938 73.7812 57.4688 73.6562 57.3438L72.8125 56.0312Z" fill=""/>
</svg>
