<svg width="49" height="44" viewBox="0 0 49 44" fill="none" xmlns="http://www.w3.org/2000/svg">
<path fill-rule="evenodd" clip-rule="evenodd" d="M17.8611 27.8581L30.1029 19.1127C29.3327 18.5545 28.6249 17.916 27.9908 17.206H4.46501C4.03187 17.206 3.62105 17.2886 3.22363 17.4047L17.8611 27.8581Z" fill=""/>
<path fill-rule="evenodd" clip-rule="evenodd" d="M34.7629 21.2735L19.1587 32.419C18.7702 32.6959 18.3147 32.8366 17.8615 32.8366C17.406 32.8366 16.9506 32.6959 16.5643 32.419L0.120565 20.6751C0.0468864 20.9966 0 21.3293 0 21.6731V39.5346C0 41.995 2.00272 44 4.46537 44H31.2576C33.7203 44 35.723 41.995 35.723 39.5346V21.6731C35.723 21.6039 35.7051 21.5369 35.7007 21.4699C35.3836 21.4141 35.0733 21.3494 34.7629 21.2735Z" fill=""/>
<path fill-rule="evenodd" clip-rule="evenodd" d="M35.7219 15.899L27.4453 7.62239L30.6023 4.46537L35.7219 9.58492L45.3068 0L48.4638 3.15702L35.7219 15.899Z" fill=""/>
</svg>
