<svg width="44" height="44" viewBox="0 0 44 44" fill="none" xmlns="http://www.w3.org/2000/svg">
<path fill-rule="evenodd" clip-rule="evenodd" d="M38.5 39.9307L7.73667 9.16732L5.5 11.404L9.24 15.144C8.10333 15.7673 7.33333 16.959 7.33333 18.334V36.6673C7.33333 38.684 8.98333 40.334 11 40.334H33C33.4217 40.334 33.825 40.2423 34.21 40.114L36.2633 42.1673L38.5 39.9307ZM16.3167 11.0007C16.3167 7.86565 18.865 5.31732 22 5.31732C25.135 5.31732 27.6833 7.86565 27.6833 11.0007V14.6673H17.71L36.6667 33.624V18.334C36.6667 16.3173 35.0167 14.6673 33 14.6673H31.1667V11.0007C31.1667 5.94065 27.06 1.83398 22 1.83398C17.3067 1.83398 13.4933 5.37232 12.9433 9.90065L16.3167 13.274V11.0007Z" fill=""/>
</svg>
