<svg width="12" height="13" viewBox="0 0 12 13" fill="none" xmlns="http://www.w3.org/2000/svg">
<path d="M6 0.6875C2.78906 0.6875 0.1875 3.3125 0.1875 6.5C0.1875 9.71094 2.78906 12.3125 6 12.3125C9.1875 12.3125 11.8125 9.71094 11.8125 6.5C11.8125 3.3125 9.1875 0.6875 6 0.6875ZM6 3.26562C6.53906 3.26562 6.98438 3.71094 6.98438 4.25C6.98438 4.8125 6.53906 5.23438 6 5.23438C5.4375 5.23438 5.01562 4.8125 5.01562 4.25C5.01562 3.71094 5.4375 3.26562 6 3.26562ZM7.3125 9.21875C7.3125 9.38281 7.17188 9.5 7.03125 9.5H4.96875C4.80469 9.5 4.6875 9.38281 4.6875 9.21875V8.65625C4.6875 8.51562 4.80469 8.375 4.96875 8.375H5.25V6.875H4.96875C4.80469 6.875 4.6875 6.75781 4.6875 6.59375V6.03125C4.6875 5.89062 4.80469 5.75 4.96875 5.75H6.46875C6.60938 5.75 6.75 5.89062 6.75 6.03125V8.375H7.03125C7.17188 8.375 7.3125 8.51562 7.3125 8.65625V9.21875Z" fill="white"/>
</svg>
