<svg width="48" height="48" viewBox="0 0 48 48" fill="none" xmlns="http://www.w3.org/2000/svg">
<path d="M48 43.5C48 44.75 47.5625 45.8125 46.6875 46.6875C45.8125 47.5625 44.75 48 43.5 48H4.5C3.25 48 2.1875 47.5625 1.3125 46.6875C0.4375 45.8125 0 44.75 0 43.5V18.8438C0 17.3438 0.5625 16.1562 1.6875 15.2812C4.25 13.2813 9.40625 9.46875 17.1562 3.84375C17.1562 3.84375 17.5938 3.53125 18.4688 2.90625C19.3438 2.21875 20 1.75 20.4375 1.5C20.875 1.1875 21.4375 0.875 22.125 0.5625C22.875 0.1875 23.5 0 24 0C24.5 0 25.0938 0.1875 25.7812 0.5625C26.5312 0.875 27.125 1.1875 27.5625 1.5C28 1.75 28.6562 2.21875 29.5312 2.90625C30.4062 3.53125 30.8438 3.84375 30.8438 3.84375C38.5938 9.46875 43.75 13.2813 46.3125 15.2812C47.4375 16.1562 48 17.3438 48 18.8438V43.5ZM41.8125 25.0312C41.5625 24.6562 41.2188 24.5938 40.7812 24.8438C38.5938 26.5312 35.2812 28.9688 30.8438 32.1562C30.8438 32.1562 30.4062 32.5 29.5312 33.1875C28.6562 33.8125 28 34.2812 27.5625 34.5938C27.125 34.8438 26.5312 35.1562 25.7812 35.5312C25.0938 35.8438 24.5 36 24 36C23.5 36 22.875 35.8438 22.125 35.5312C21.4375 35.1562 20.875 34.8438 20.4375 34.5938C20 34.2812 19.3438 33.8125 18.4688 33.1875C17.5938 32.5 17.1562 32.1562 17.1562 32.1562C12.7188 28.9688 9.40625 26.5312 7.21875 24.8438C6.78125 24.5938 6.4375 24.6562 6.1875 25.0312L5.34375 26.3438C5.21875 26.4688 5.15625 26.5938 5.15625 26.7188C5.15625 26.9688 5.25 27.1875 5.4375 27.375C7.6875 29 11 31.375 15.375 34.5C15.5 34.625 15.9062 34.9688 16.5938 35.5312C17.2812 36.0312 17.8438 36.4375 18.2812 36.75C18.7188 37.0625 19.2812 37.4375 19.9688 37.875C20.7188 38.25 21.4062 38.5312 22.0312 38.7188C22.7188 38.9062 23.375 39 24 39C24.625 39 25.25 38.9062 25.875 38.7188C26.5625 38.5312 27.25 38.25 27.9375 37.875C28.6875 37.4375 29.2812 37.0625 29.7188 36.75C30.1562 36.4375 30.7188 36.0312 31.4062 35.5312C32.0938 34.9688 32.5 34.625 32.625 34.5C37 31.375 40.3125 29 42.5625 27.375C42.75 27.1875 42.8438 26.9688 42.8438 26.7188C42.8438 26.5938 42.7812 26.4688 42.6562 26.3438L41.8125 25.0312Z" fill=""/>
</svg>
