<svg width="42" height="48" viewBox="0 0 42 48" fill="none" xmlns="http://www.w3.org/2000/svg">
<path d="M37.5 24C38.75 24 39.8125 24.4375 40.6875 25.3125C41.5625 26.1875 42 27.25 42 28.5V43.5C42 44.75 41.5625 45.8125 40.6875 46.6875C39.8125 47.5625 38.75 48 37.5 48H4.5C3.25 48 2.1875 47.5625 1.3125 46.6875C0.4375 45.8125 0 44.75 0 43.5V28.5C0 27.25 0.4375 26.1875 1.3125 25.3125C2.1875 24.4375 3.25 24 4.5 24H6.75V14.4375C6.75 10.4375 8.125 7.03125 10.875 4.21875C13.6875 1.40625 17.0312 0 20.9062 0C24.8438 0 28.2188 1.40625 31.0312 4.21875C33.8438 6.96875 35.25 10.3125 35.25 14.25V15.75C35.25 16.375 35.0312 16.9062 34.5938 17.3438C34.1562 17.7812 33.625 18 33 18H30C29.375 18 28.8438 17.7812 28.4062 17.3438C27.9688 16.9062 27.75 16.375 27.75 15.75V14.25C27.75 12.375 27.0625 10.7812 25.6875 9.46875C24.375 8.15625 22.7812 7.5 20.9062 7.5C19.0938 7.5 17.5312 8.1875 16.2188 9.5625C14.9062 10.875 14.25 12.4688 14.25 14.3438V24H37.5Z" fill=""/>
</svg>
