<svg width="65" height="50" viewBox="0 0 65 50" fill="none" xmlns="http://www.w3.org/2000/svg">
<path d="M51.5 9H3.5C2.39543 9 1.5 9.89543 1.5 11V47C1.5 48.1046 2.39543 49 3.5 49H51.5C52.6046 49 53.5 48.1046 53.5 47V11C53.5 9.89543 52.6046 9 51.5 9Z" stroke="" stroke-width="2" stroke-miterlimit="10"/>
<path d="M10.5 7V1H63.5V41H55.5" stroke="" stroke-width="2" stroke-miterlimit="10"/>
<path d="M1.5 39L15.5 25L29.5 41L39.5 35L53.5 47" stroke="" stroke-width="2" stroke-miterlimit="10"/>
<path d="M40.5 27C43.2614 27 45.5 24.7614 45.5 22C45.5 19.2386 43.2614 17 40.5 17C37.7386 17 35.5 19.2386 35.5 22C35.5 24.7614 37.7386 27 40.5 27Z" stroke="" stroke-width="2" stroke-miterlimit="10"/>
</svg>
