<svg width="22" height="24" viewBox="0 0 22 24" fill="none" xmlns="http://www.w3.org/2000/svg">
<path d="M13.1562 23.1094C12.5625 23.7031 11.8594 24 11.0469 24C10.2344 24 9.53125 23.7031 8.9375 23.1094C8.34375 22.5469 8.04688 21.8438 8.04688 21H14.0469C14.0469 21.8438 13.75 22.5469 13.1562 23.1094ZM21.125 16.9688C21.4062 17.2812 21.5469 17.625 21.5469 18C21.5469 18.4062 21.4062 18.7656 21.125 19.0781C20.8438 19.3594 20.4844 19.5 20.0469 19.5H2.04688C1.60938 19.5 1.25 19.3594 0.96875 19.0781C0.6875 18.7656 0.546875 18.4062 0.546875 18C0.546875 17.625 0.6875 17.2812 0.96875 16.9688C1 16.9375 1.04688 16.875 1.10938 16.7812C1.57812 16.3125 1.9375 15.8906 2.1875 15.5156C2.46875 15.1406 2.76562 14.4375 3.07812 13.4062C3.39062 12.3438 3.54688 11.125 3.54688 9.75C3.54688 7.9375 4.10938 6.35938 5.23438 5.01562C6.35938 3.67188 7.79688 2.82812 9.54688 2.48438V1.5C9.54688 1.09375 9.6875 0.75 9.96875 0.46875C10.2812 0.15625 10.6406 0 11.0469 0C11.4531 0 11.7969 0.15625 12.0781 0.46875C12.3906 0.75 12.5469 1.09375 12.5469 1.5V2.48438C14.2969 2.82812 15.7344 3.67188 16.8594 5.01562C17.9844 6.35938 18.5469 7.9375 18.5469 9.75C18.5469 11.125 18.7031 12.3438 19.0156 13.4062C19.3281 14.4375 19.6094 15.1406 19.8594 15.5156C20.1406 15.8906 20.5156 16.3125 20.9844 16.7812C21.0469 16.875 21.0938 16.9375 21.125 16.9688Z" fill="black"/>
</svg>
