<svg width="18" height="18" viewBox="0 0 18 18" fill="none" xmlns="http://www.w3.org/2000/svg">
<path d="M18 9C18 13.9703 13.9703 18 9 18C4.02971 18 0 13.9703 0 9C0 4.02971 4.02971 0 9 0C13.9713 0 18 4.02971 18 9Z" fill="#0F4AE3"/>
<path d="M4.44059 9.30271L4.47942 9.24167L6.82068 5.57907C6.8549 5.52544 6.93534 5.53099 6.96122 5.58924C7.35236 6.46582 7.68986 7.55601 7.53175 8.23471C7.46425 8.51397 7.27932 8.89215 7.07126 9.24167C7.04445 9.29254 7.01486 9.34247 6.98342 9.39055C6.96862 9.41274 6.94365 9.42568 6.91683 9.42568H4.50901C4.44428 9.42568 4.40638 9.35541 4.44059 9.30271Z" fill="white"/>
<path d="M14.8753 9.98259V10.5624C14.8753 10.5956 14.8549 10.6252 14.8254 10.6382C14.6441 10.7158 14.0237 11.0006 13.7657 11.3594C13.1073 12.2758 12.6043 13.586 11.4799 13.586H6.78908C5.12654 13.586 3.7793 12.2342 3.7793 10.566V10.5124C3.7793 10.468 3.81535 10.432 3.85974 10.432H6.47471C6.52647 10.432 6.56438 10.4801 6.55978 10.5309C6.54127 10.701 6.57272 10.8749 6.65316 11.033C6.8085 11.3483 7.13028 11.5453 7.47795 11.5453H8.7725V10.5346H7.49275C7.4271 10.5346 7.38828 10.4588 7.42619 10.4052C7.44005 10.3839 7.45578 10.3617 7.47241 10.3367C7.59355 10.1647 7.76646 9.89752 7.93845 9.5933C8.05588 9.38803 8.16961 9.16888 8.26115 8.94881C8.27966 8.90905 8.29444 8.86835 8.30923 8.82859C8.3342 8.75832 8.3601 8.69267 8.37859 8.62703C8.39709 8.57153 8.41187 8.51328 8.42666 8.45873C8.47013 8.27194 8.48862 8.07407 8.48862 7.8688C8.48862 7.78835 8.48493 7.7042 8.47753 7.62376C8.47382 7.53592 8.46274 7.44806 8.45163 7.36022C8.44423 7.28255 8.43037 7.2058 8.41557 7.12536C8.39709 7.00793 8.37119 6.89143 8.3416 6.77398L8.33143 6.72961C8.30923 6.64915 8.29075 6.57242 8.26486 6.49197C8.1918 6.23952 8.10767 5.99357 8.01889 5.76333C7.98653 5.67179 7.94954 5.58395 7.91255 5.49611C7.85801 5.36388 7.80251 5.24368 7.75166 5.12993C7.72578 5.07815 7.70358 5.03099 7.68139 4.98291C7.65642 4.92835 7.63054 4.87379 7.60464 4.82203C7.58615 4.78226 7.56488 4.74527 7.55008 4.70828L7.39197 4.41609C7.36978 4.37633 7.40677 4.32917 7.45022 4.34119L8.43962 4.60934H8.4424C8.44423 4.60934 8.44517 4.61027 8.44609 4.61027L8.57646 4.64633L8.71979 4.68703L8.7725 4.7018V4.11373C8.7725 3.82985 8.99996 3.59961 9.28107 3.59961C9.42161 3.59961 9.54922 3.65694 9.64076 3.75032C9.73229 3.84373 9.78962 3.97133 9.78962 4.11373V4.98662L9.89505 5.01619C9.90336 5.01898 9.91168 5.02267 9.91908 5.02822C9.94498 5.04764 9.98195 5.07629 10.0291 5.11145C10.0661 5.14102 10.1059 5.17709 10.1539 5.21408C10.2492 5.29082 10.3629 5.38976 10.4878 5.50351C10.521 5.53216 10.5534 5.56175 10.583 5.59135C10.7439 5.74114 10.9242 5.91682 11.0962 6.11101C11.1443 6.16556 11.1914 6.22104 11.2395 6.27929C11.2876 6.33847 11.3385 6.39672 11.3828 6.45499C11.4411 6.53266 11.504 6.6131 11.5585 6.69725C11.5844 6.73701 11.614 6.77769 11.639 6.81745C11.7092 6.92378 11.7712 7.03383 11.8304 7.14386C11.8553 7.19471 11.8812 7.25019 11.9034 7.30475C11.9691 7.45177 12.0208 7.60157 12.0541 7.75136C12.0643 7.78373 12.0717 7.81886 12.0754 7.85031V7.85771C12.0865 7.90208 12.0902 7.94924 12.0939 7.99732C12.1087 8.15082 12.1013 8.3043 12.068 8.45873C12.0541 8.52439 12.0356 8.58633 12.0135 8.65199C11.9913 8.71487 11.9691 8.78051 11.9404 8.84247C11.8849 8.97099 11.8193 9.09953 11.7416 9.21973C11.7166 9.26412 11.687 9.31128 11.6574 9.35567C11.6251 9.40281 11.5918 9.4472 11.5622 9.49067C11.5215 9.54614 11.4781 9.60439 11.4337 9.65618C11.3939 9.71073 11.3532 9.76529 11.3089 9.81337C11.2469 9.88641 11.1877 9.95577 11.1258 10.0224C11.0888 10.0658 11.049 10.1102 11.0083 10.15C10.9686 10.1943 10.9279 10.2341 10.8909 10.2711C10.829 10.333 10.7772 10.3811 10.7337 10.4209L10.632 10.5143C10.6172 10.5272 10.5978 10.5346 10.5774 10.5346H9.78962V11.5453H10.7809C11.0028 11.5453 11.2136 11.4667 11.3838 11.3224C11.442 11.2716 11.6963 11.0515 11.9968 10.7195C12.007 10.7084 12.0199 10.7001 12.0347 10.6964L14.7727 9.90492C14.8235 9.89012 14.8753 9.92895 14.8753 9.98259Z" fill="white"/>
</svg>
