<svg viewBox="0 0 17 16" fill="none" xmlns="http://www.w3.org/2000/svg">
<path fill-rule="evenodd" clip-rule="evenodd" d="M10.9472 7.57905H7.99979C7.76737 7.57905 7.57874 7.76852 7.57874 8.0001C7.57874 8.23252 7.76737 8.42116 7.99979 8.42116H8.8419C10.0023 8.42116 10.9472 9.366 10.9472 10.5264C10.9472 11.5428 10.223 12.3942 9.26295 12.5896V13.4738H7.57874V12.6317H5.89453V10.9475H8.8419C9.07432 10.9475 9.26295 10.7588 9.26295 10.5264C9.26295 10.2948 9.07432 10.1054 8.8419 10.1054H7.99979C6.83937 10.1054 5.89453 9.16052 5.89453 8.0001C5.89453 6.98368 6.61874 6.13316 7.57874 5.93779V5.05273H9.26295V5.89484H10.9472V7.57905ZM6.73682 1.68408H10.1052V2.52619H6.73682V1.68408ZM15.1579 2.52632V1.68421H13.4737V2.52632H11.7895V0.842105C11.7895 0.377263 11.4131 0 10.9474 0H5.89474C5.42989 0 5.05263 0.377263 5.05263 0.842105V2.52632H3.36842V1.68421H1.68421V2.52632C0.755368 2.52632 0 3.28168 0 4.21053V14.3158C0 15.2446 0.755368 16 1.68421 16H15.1579C16.0876 16 16.8421 15.2446 16.8421 14.3158V4.21053C16.8421 3.28168 16.0876 2.52632 15.1579 2.52632Z" fill=""/>
</svg>
