<svg  viewBox="0 0 14 13" fill="none" xmlns="http://www.w3.org/2000/svg">
<path d="M11.3906 0.5L13.5 4.25H11.1328L9.51562 0.5H11.3906ZM8.39062 0.5L10.0078 4.25H3.49219L5.10938 0.5H8.39062ZM2.10938 0.5H3.98438L2.36719 4.25H0L2.10938 0.5ZM0 5H2.36719L5.25 10.9062C5.26562 10.9375 5.25 10.9688 5.20312 11C5.17188 11.0156 5.14844 11.0078 5.13281 10.9766L0 5ZM3.46875 5H10.0312L6.82031 12.4531C6.80469 12.4844 6.78125 12.5 6.75 12.5C6.71875 12.5 6.69531 12.4844 6.67969 12.4531L3.46875 5ZM8.25 10.9062L11.1328 5H13.5L8.36719 10.9766C8.35156 11.0078 8.32031 11.0156 8.27344 11C8.24219 10.9688 8.23438 10.9375 8.25 10.9062Z" fill=""/>
</svg>
