<svg width="17" height="18" viewBox="0 0 17 18" fill="none" xmlns="http://www.w3.org/2000/svg">
<g clip-path="url(#clip0_2769_8584)">
<path d="M10.8586 0C7.52315 0 4.81689 2.70964 4.81689 6.04172C4.81689 7.27307 5.19577 8.43 5.83851 9.3941C6.04824 9.35689 6.25459 9.31968 6.46433 9.31968H6.55905L7.52654 9.33998C6.67406 8.4875 6.16326 7.31366 6.16326 6.02481C6.16326 3.4471 8.26737 1.34636 10.862 1.34636C13.4566 1.34636 15.5404 3.45048 15.5404 6.04511C15.5404 7.33396 15.0296 8.5078 14.1772 9.36027L14.4985 9.26555C14.6677 9.20804 14.8571 9.17083 15.0465 9.17083C15.3307 9.17083 15.6149 9.24526 15.8787 9.38057C16.5215 8.43338 16.9003 7.27645 16.9003 6.04511C16.9003 2.70964 14.1738 0 10.8586 0Z" fill=""/>
<path d="M13.7745 5.51389C14.0383 5.26694 13.8895 4.83056 13.5478 4.79335L12.0526 4.6242C11.9579 4.60391 11.8835 4.5667 11.8429 4.47198L11.217 3.1087C11.0648 2.78733 10.6115 2.78733 10.4593 3.1087L9.83347 4.47198C9.79626 4.5464 9.71846 4.60391 9.62374 4.6242L8.14544 4.79335C7.78686 4.83056 7.65155 5.26694 7.91879 5.51389L9.01821 6.51858C9.07572 6.57609 9.11293 6.67081 9.09263 6.74523L8.78818 8.20323C8.71376 8.56181 9.09263 8.82905 9.414 8.65652L10.7198 7.91907C10.7942 7.88186 10.8889 7.88186 10.9667 7.91907L12.2725 8.65652C12.5769 8.82567 12.9558 8.56181 12.8983 8.20323L12.5939 6.74523C12.5736 6.65051 12.6142 6.57609 12.6683 6.49829L13.7745 5.51389Z" fill=""/>
<path d="M0.0810067 15.287C-0.0509231 15.4561 -0.0137121 15.7031 0.155429 15.835L2.9767 17.9222C3.14584 18.0541 3.39278 18.0169 3.5078 17.8478L4.62413 16.3323L1.21763 13.7715L0.0810067 15.287Z" fill=""/>
<path d="M14.7995 10.1553L12.2421 10.9706V11.1397C12.2049 11.8772 11.6941 12.503 10.9735 12.6755L10.8044 12.7127C9.85721 12.9225 8.91002 13.0544 7.94253 13.0916L7.16448 13.1288C6.90062 13.1491 6.69089 12.9394 6.67059 12.6924C6.65029 12.4286 6.86003 12.2188 7.10697 12.1985L7.88502 12.1613C8.795 12.1241 9.68468 12.0091 10.5744 11.8028L10.7435 11.7655C11.048 11.6911 11.2746 11.4239 11.2915 11.1228C11.2915 10.9334 11.234 10.7642 11.1021 10.612C10.9702 10.4801 10.7976 10.4023 10.6082 10.3854L6.49807 10.2703C6.04477 10.25 5.60838 10.4023 5.22951 10.6695L1.89404 13.1525L5.41894 15.7674L8.86604 16.0719C9.47157 16.1294 10.0602 15.94 10.5338 15.578L15.5539 11.5795C15.7433 11.4273 15.838 11.2209 15.8583 10.9909C15.8786 10.7642 15.8008 10.5376 15.6317 10.3651C15.405 10.135 15.0837 10.0606 14.7995 10.1553Z" fill=""/>
</g>
<defs>
<clipPath id="clip0_2769_8584">
<rect width="16.9006" height="18" fill="white"/>
</clipPath>
</defs>
</svg>
