<svg width="48" height="36" viewBox="0 0 48 36" fill="none" xmlns="http://www.w3.org/2000/svg">
<path d="M16.3125 35.1562L0.65625 19.5938C0.21875 19.1562 0 18.5938 0 17.9062C0 17.2188 0.21875 16.6562 0.65625 16.2188L4.125 12.8438C4.5625 12.3438 5.09375 12.0938 5.71875 12.0938C6.40625 12.0938 7 12.3438 7.5 12.8438L18 23.3438L40.5 0.84375C41 0.34375 41.5625 0.09375 42.1875 0.09375C42.875 0.09375 43.4375 0.34375 43.875 0.84375L47.3438 4.21875C47.7812 4.65625 48 5.21875 48 5.90625C48 6.59375 47.7812 7.15625 47.3438 7.59375L19.6875 35.1562C19.25 35.6562 18.6875 35.9062 18 35.9062C17.3125 35.9062 16.75 35.6562 16.3125 35.1562Z" fill=""/>
</svg>
