<svg viewBox="0 0 48 48" fill="none" xmlns="http://www.w3.org/2000/svg">
<path d="M0 24C0 10.7452 10.7452 0 24 0C37.2548 0 48 10.7452 48 24C48 37.2548 37.2548 48 24 48C10.7452 48 0 37.2548 0 24Z" fill=""/>
<path d="M15.75 15.7969C18.0312 13.5156 20.7812 12.375 24 12.375C27.2188 12.375 29.9531 13.5156 32.2031 15.7969C34.4844 18.0469 35.625 20.7812 35.625 24C35.625 27.2188 34.4844 29.9688 32.2031 32.25C29.9531 34.5 27.2188 35.625 24 35.625C20.7812 35.625 18.0312 34.5 15.75 32.25C13.5 29.9688 12.375 27.2188 12.375 24C12.375 20.7812 13.5 18.0469 15.75 15.7969ZM26.9062 18.0938C26.0938 17.2812 25.125 16.875 24 16.875C22.875 16.875 21.9062 17.2812 21.0938 18.0938C20.2812 18.9062 19.875 19.875 19.875 21C19.875 22.125 20.2812 23.0938 21.0938 23.9062C21.9062 24.7188 22.875 25.125 24 25.125C25.125 25.125 26.0938 24.7188 26.9062 23.9062C27.7188 23.0938 28.125 22.125 28.125 21C28.125 19.875 27.7188 18.9062 26.9062 18.0938ZM17.1562 29.8125C18.9375 31.9375 21.2188 33 24 33C26.7812 33 29.0625 31.9375 30.8438 29.8125C30.4062 28.9688 29.7812 28.2969 28.9688 27.7969C28.1562 27.2656 27.25 27 26.25 27C26.1562 27 26.0469 27.0156 25.9219 27.0469C25.2656 27.2656 24.625 27.375 24 27.375C23.375 27.375 22.7344 27.2656 22.0781 27.0469C21.9531 27.0156 21.8438 27 21.75 27C20.75 27 19.8438 27.2656 19.0312 27.7969C18.2188 28.2969 17.5938 28.9688 17.1562 29.8125Z" fill="white"/>
</svg>
