<svg width="110" height="110" viewBox="0 0 110 110" fill="none" xmlns="http://www.w3.org/2000/svg">
<circle cx="55" cy="55" r="55" fill="#F3FAFF"/>
<path fill-rule="evenodd" clip-rule="evenodd" d="M74.6008 63.8005H60.1135L55.7134 59.4005L60.1135 55.0004H74.6008V63.8005ZM62.5379 37.9931L64.4409 41.7991H53.0249L62.5379 37.9931ZM76.8007 50.5995H74.6007V46.1995C74.6007 43.775 72.6272 41.7994 70.2006 41.7994H69.3602L65.5673 34.2159C65.0569 33.1928 63.8491 32.7352 62.7821 33.1554L41.1755 41.7994H39.4001C36.9734 41.7994 35 43.775 35 46.1995V72.5999C35 75.0266 36.9734 77 39.4001 77H70.2006C72.6272 77 74.6007 75.0266 74.6007 72.5999V68.1998H76.8007C78.0151 68.1998 79.0008 67.2142 79.0008 65.9998V52.7996C79.0008 51.5874 78.0151 50.5995 76.8007 50.5995Z" fill=""/>
<path fill-rule="evenodd" clip-rule="evenodd" d="M63.6004 61.6012C64.8148 61.6012 65.8005 60.6178 65.8005 59.4012C65.8005 58.189 64.8148 57.2012 63.6004 57.2012C62.386 57.2012 61.4004 58.189 61.4004 59.4012C61.4004 60.6178 62.386 61.6012 63.6004 61.6012Z" fill=""/>
</svg>
