<svg width="24" height="24" viewBox="0 0 24 24" fill="none" xmlns="http://www.w3.org/2000/svg">
<path d="M20.2031 3.79688C22.4844 6.04688 23.625 8.78125 23.625 12C23.625 15.2188 22.4844 17.9688 20.2031 20.25C17.9531 22.5 15.2188 23.625 12 23.625C8.78125 23.625 6.03125 22.5 3.75 20.25C1.5 17.9688 0.375 15.2188 0.375 12C0.375 8.78125 1.5 6.04688 3.75 3.79688C6.03125 1.51562 8.78125 0.375 12 0.375C15.2188 0.375 17.9531 1.51562 20.2031 3.79688ZM13.5 15C13.0938 14.5625 12.5938 14.3438 12 14.3438C11.4062 14.3438 10.8906 14.5625 10.4531 15C10.0469 15.4062 9.84375 15.9062 9.84375 16.5C9.84375 17.0938 10.0469 17.6094 10.4531 18.0469C10.8906 18.4531 11.4062 18.6562 12 18.6562C12.5938 18.6562 13.0938 18.4531 13.5 18.0469C13.9375 17.6094 14.1562 17.0938 14.1562 16.5C14.1562 15.9062 13.9375 15.4062 13.5 15ZM9.9375 6.60938L10.3125 12.9844C10.3125 13.3281 10.5 13.5 10.875 13.5H13.125C13.5 13.5 13.6875 13.3281 13.6875 12.9844L14.0625 6.60938C14.0625 6.42188 14 6.28125 13.875 6.1875C13.7812 6.0625 13.6562 6 13.5 6H10.5C10.3438 6 10.2031 6.0625 10.0781 6.1875C9.98438 6.28125 9.9375 6.42188 9.9375 6.60938Z" fill=""/>
</svg>
