<svg width="110" height="110" viewBox="0 0 110 110" fill="none" xmlns="http://www.w3.org/2000/svg">
<circle cx="55" cy="55" r="55" fill="#F3FAFF"/>
<path fill-rule="evenodd" clip-rule="evenodd" d="M76.6855 37.8986L74.0798 35.293L68.0117 41.3593V36.5939H64.3262V47.6504H75.3826V43.9649H70.6173L76.6855 37.8986Z" fill="#0F4AE3"/>
<path fill-rule="evenodd" clip-rule="evenodd" d="M62.4843 66.0784H54.0335L50.348 62.3929L54.0335 58.7075H62.4843V66.0784ZM64.3267 55.0224H62.4839V53.1796C62.4839 51.1471 60.831 49.4941 58.7984 49.4941H36.6855C34.6529 49.4941 33 51.1471 33 53.1796V71.6071C33 73.6396 34.6529 75.2926 36.6855 75.2926H58.7984C60.831 75.2926 62.4839 73.6396 62.4839 71.6071V69.7643H64.3267C65.3439 69.7643 66.1694 68.9388 66.1694 67.9216V56.8651C66.1694 55.8479 65.3439 55.0224 64.3267 55.0224Z" fill="#0F4AE3"/>
<path fill-rule="evenodd" clip-rule="evenodd" d="M53.2715 62.3955C53.2715 63.4145 54.097 64.2382 55.1142 64.2382C56.1314 64.2382 56.957 63.4145 56.957 62.3955C56.957 61.3801 56.1314 60.5527 55.1142 60.5527C54.097 60.5527 53.2715 61.3801 53.2715 62.3955Z" fill="#0F4AE3"/>
</svg>
